运行 java测试 案例 com.example.demo.FFmpegJNITest
sbc run -t -v /home/user/JAVA-TEST/java-rtf-test/ffmpeg/files:/tmp@/home/user/JAVA-TEST/java-rtf-test/rmi.sh:/opt/app/lib/logback-classic-1.2.3.jar@/home/user/JAVA-TEST/java-rtf-test/test-classes/com:/opt/app/test-classes/com -p docker.bplatform.demo/java_rtf_sw:2.1 docker.bplatform.demo/java_rtf_test_all:1.0  /opt/app/runTest com.example.demo.FFmpegJNITest encode_video /tmp/03.yuv /tmp/04.xvid
TEST_DIR=/opt/app
/usr/lib/jvm/java-11-openjdk-sw_64/bin/java -classpath /opt/app/lib/*:/opt/app/classes:/opt/app/test-classes com.example.demo.FFmpegJNITest encode_video /tmp/03.yuv /tmp/04.xvid
视频编码
[48;5;0m[38;5;213m[NULL @ 0x41e74476c3f0] [0m[48;5;0m[38;5;196mUnable to find a suitable output format for '/tmp/04.xvid'
[0mCould not deduce output format from file extension: using MPEG.
Output #0, mpeg, to '/tmp/04.xvid':
    Stream #0:0: Video: mpeg1video, yuv420p, 640x480, q=2-31, 400 kb/s, 25 tbn
[48;5;0m[38;5;213m[mpeg @ 0x41e74476c3f0] [0m[48;5;0m[38;5;226mVBV buffer size not set, using default size of 230KB
If you want the mpeg file to be compliant to some specification
Like DVD, VCD or others, make sure you set the correct buffer size
[0mpts:0 pts_time:0 dts:-3600 dts_time:-0.04 duration:0 duration_time:0 stream_index:0
pts:3600 pts_time:0.04 dts:0 dts_time:0 duration:0 duration_time:0 stream_index:0
[48;5;0m[38;5;213m[mpeg @ 0x41e74476c3f0] [0m[48;5;0m[38;5;196mbuffer underflow st=0 bufi=15773 size=19913
[0m[48;5;0m[38;5;213m[mpeg @ 0x41e74476c3f0] [0m[48;5;0m[38;5;196mbuffer underflow st=0 bufi=17814 size=19913
[0m[48;5;0m[38;5;213m[mpeg @ 0x41e74476c3f0] [0m[48;5;0m[38;5;196mbuffer underflow st=0 bufi=19855 size=19913
[0mpts:7200 pts_time:0.08 dts:3600 dts_time:0.04 duration:0 duration_time:0 stream_index:0
[48;5;0m[38;5;213m[mpeg @ 0x41e74476c3f0] [0m[48;5;0m[38;5;196mbuffer underflow st=0 bufi=1974 size=7613
[0m[48;5;0m[38;5;213m[mpeg @ 0x41e74476c3f0] [0m[48;5;0m[38;5;196mbuffer underflow st=0 bufi=4015 size=7613
[0m[48;5;0m[38;5;213m[mpeg @ 0x41e74476c3f0] [0m[48;5;0m[38;5;196mbuffer underflow st=0 bufi=6056 size=7613
[0mpts:10800 pts_time:0.12 dts:7200 dts_time:0.08 duration:0 duration_time:0 stream_index:0
[48;5;0m[38;5;213m[mpeg @ 0x41e74476c3f0] [0m[48;5;0m[38;5;196mbuffer underflow st=0 bufi=475 size=21399
[0m[48;5;0m[38;5;213m[mpeg @ 0x41e74476c3f0] [0m[48;5;0m[38;5;196mbuffer underflow st=0 bufi=2516 size=21399
[0m[48;5;0m[38;5;213m[mpeg @ 0x41e74476c3f0] [0m[48;5;0m[38;5;196mbuffer underflow st=0 bufi=4557 size=21399
[0m[48;5;0m[38;5;213m[mpeg @ 0x41e74476c3f0] [0m[48;5;0m[38;5;196mbuffer underflow st=0 bufi=6598 size=21399
[0m[48;5;0m[38;5;213m[mpeg @ 0x41e74476c3f0] [0m[48;5;0m[38;5;196mbuffer underflow st=0 bufi=8639 size=21399
[0m[48;5;0m[38;5;213m[mpeg @ 0x41e74476c3f0] [0m[48;5;0m[38;5;196mbuffer underflow st=0 bufi=10680 size=21399
[0m[48;5;0m[38;5;213m[mpeg @ 0x41e74476c3f0] [0m[48;5;0m[38;5;196mbuffer underflow st=0 bufi=12721 size=21399
[0m[48;5;0m[38;5;213m[mpeg @ 0x41e74476c3f0] [0m[48;5;0m[38;5;196mbuffer underflow st=0 bufi=14762 size=21399
[0m[48;5;0m[38;5;213m[mpeg @ 0x41e74476c3f0] [0m[48;5;0m[38;5;196mbuffer underflow st=0 bufi=16803 size=21399
[0m[48;5;0m[38;5;213m[mpeg @ 0x41e74476c3f0] [0m[48;5;0m[38;5;196mbuffer underflow st=0 bufi=18844 size=21399
[0m[48;5;0m[38;5;213m[mpeg @ 0x41e74476c3f0] [0m[48;5;0m[38;5;196mbuffer underflow st=0 bufi=20885 size=21399
[0mpts:14400 pts_time:0.16 dts:10800 dts_time:0.12 duration:0 duration_time:0 stream_index:0
[48;5;0m[38;5;213m[mpeg @ 0x41e74476c3f0] [0m[48;5;0m[38;5;196mbuffer underflow st=0 bufi=1518 size=4500
[0m[48;5;0m[38;5;213m[mpeg @ 0x41e74476c3f0] [0m[48;5;0m[38;5;196mbuffer underflow st=0 bufi=3559 size=4500
[0mpts:18000 pts_time:0.2 dts:14400 dts_time:0.16 duration:0 duration_time:0 stream_index:0
[48;5;0m[38;5;213m[mpeg @ 0x41e74476c3f0] [0m[48;5;0m[38;5;196mbuffer underflow st=0 bufi=1091 size=3568
[0m[48;5;0m[38;5;213m[mpeg @ 0x41e74476c3f0] [0m[48;5;0m[38;5;196mbuffer underflow st=0 bufi=3132 size=3568
[0mpts:21600 pts_time:0.24 dts:18000 dts_time:0.2 duration:0 duration_time:0 stream_index:0
[48;5;0m[38;5;213m[mpeg @ 0x41e74476c3f0] [0m[48;5;0m[38;5;196mbuffer underflow st=0 bufi=1596 size=3798
[0m[48;5;0m[38;5;213m[mpeg @ 0x41e74476c3f0] [0m[48;5;0m[38;5;196mbuffer underflow st=0 bufi=3637 size=3798
[0mpts:25200 pts_time:0.28 dts:21600 dts_time:0.24 duration:0 duration_time:0 stream_index:0
[48;5;0m[38;5;213m[mpeg @ 0x41e74476c3f0] [0m[48;5;0m[38;5;196mbuffer underflow st=0 bufi=1871 size=3669
[0mpts:28800 pts_time:0.32 dts:25200 dts_time:0.28 duration:0 duration_time:0 stream_index:0
[48;5;0m[38;5;213m[mpeg @ 0x41e74476c3f0] [0m[48;5;0m[38;5;196mbuffer underflow st=0 bufi=234 size=3221
[0m[48;5;0m[38;5;213m[mpeg @ 0x41e74476c3f0] [0m[48;5;0m[38;5;196mbuffer underflow st=0 bufi=2275 size=3221
[0mpts:32400 pts_time:0.36 dts:28800 dts_time:0.32 duration:0 duration_time:0 stream_index:0
[48;5;0m[38;5;213m[mpeg @ 0x41e74476c3f0] [0m[48;5;0m[38;5;196mbuffer underflow st=0 bufi=1086 size=3271
[0m[48;5;0m[38;5;213m[mpeg @ 0x41e74476c3f0] [0m[48;5;0m[38;5;196mbuffer underflow st=0 bufi=3127 size=3271
[0mpts:36000 pts_time:0.4 dts:32400 dts_time:0.36 duration:0 duration_time:0 stream_index:0
pts:39600 pts_time:0.44 dts:36000 dts_time:0.4 duration:0 duration_time:0 stream_index:0
[48;5;0m[38;5;213m[mpeg @ 0x41e74476c3f0] [0m[48;5;0m[38;5;196mbuffer underflow st=0 bufi=1471 size=3570
[0m[48;5;0m[38;5;213m[mpeg @ 0x41e74476c3f0] [0m[48;5;0m[38;5;196mbuffer underflow st=0 bufi=3512 size=3570
[0mpts:43200 pts_time:0.48 dts:39600 dts_time:0.44 duration:0 duration_time:0 stream_index:0
[48;5;0m[38;5;213m[mpeg @ 0x41e74476c3f0] [0m[48;5;0m[38;5;196mbuffer underflow st=0 bufi=1974 size=2623
[0mpts:46800 pts_time:0.52 dts:43200 dts_time:0.48 duration:0 duration_time:0 stream_index:0
[48;5;0m[38;5;213m[mpeg @ 0x41e74476c3f0] [0m[48;5;0m[38;5;196mbuffer underflow st=0 bufi=1383 size=17244
[0m[48;5;0m[38;5;213m[mpeg @ 0x41e74476c3f0] [0m[48;5;0m[38;5;196mbuffer underflow st=0 bufi=3424 size=17244
[0m[48;5;0m[38;5;213m[mpeg @ 0x41e74476c3f0] [0m[48;5;0m[38;5;196mbuffer underflow st=0 bufi=5465 size=17244
[0m[48;5;0m[38;5;213m[mpeg @ 0x41e74476c3f0] [0m[48;5;0m[38;5;196mbuffer underflow st=0 bufi=7506 size=17244
[0m[48;5;0m[38;5;213m[mpeg @ 0x41e74476c3f0] [0m[48;5;0m[38;5;196mbuffer underflow st=0 bufi=9547 size=17244
[0m[48;5;0m[38;5;213m[mpeg @ 0x41e74476c3f0] [0m[48;5;0m[38;5;196mbuffer underflow st=0 bufi=11588 size=17244
[0m[48;5;0m[38;5;213m[mpeg @ 0x41e74476c3f0] [0m[48;5;0m[38;5;196mbuffer underflow st=0 bufi=13629 size=17244
[0m[48;5;0m[38;5;213m[mpeg @ 0x41e74476c3f0] [0m[48;5;0m[38;5;196mbuffer underflow st=0 bufi=15658 size=17244
[0mpts:50400 pts_time:0.56 dts:46800 dts_time:0.52 duration:0 duration_time:0 stream_index:0
[48;5;0m[38;5;213m[mpeg @ 0x41e74476c3f0] [0m[48;5;0m[38;5;196mbuffer underflow st=0 bufi=446 size=2360
[0mpts:54000 pts_time:0.6 dts:50400 dts_time:0.56 duration:0 duration_time:0 stream_index:0
[48;5;0m[38;5;213m[mpeg @ 0x41e74476c3f0] [0m[48;5;0m[38;5;196mbuffer underflow st=0 bufi=118 size=24877
[0m[48;5;0m[38;5;213m[mpeg @ 0x41e74476c3f0] [0m[48;5;0m[38;5;196mbuffer underflow st=0 bufi=2159 size=24877
[0m[48;5;0m[38;5;213m[mpeg @ 0x41e74476c3f0] [0m[48;5;0m[38;5;196mbuffer underflow st=0 bufi=4200 size=24877
[0m[48;5;0m[38;5;213m[mpeg @ 0x41e74476c3f0] [0m[48;5;0m[38;5;196mbuffer underflow st=0 bufi=6241 size=24877
[0m[48;5;0m[38;5;213m[mpeg @ 0x41e74476c3f0] [0m[48;5;0m[38;5;196mbuffer underflow st=0 bufi=8282 size=24877
[0m[48;5;0m[38;5;213m[mpeg @ 0x41e74476c3f0] [0m[48;5;0m[38;5;196mbuffer underflow st=0 bufi=10323 size=24877
[0m[48;5;0m[38;5;213m[mpeg @ 0x41e74476c3f0] [0m[48;5;0m[38;5;196mbuffer underflow st=0 bufi=12364 size=24877
[0m[48;5;0m[38;5;213m[mpeg @ 0x41e74476c3f0] [0m[48;5;0m[38;5;196mbuffer underflow st=0 bufi=14405 size=24877
[0m[48;5;0m[38;5;213m[mpeg @ 0x41e74476c3f0] [0m[48;5;0m[38;5;196mbuffer underflow st=0 bufi=16446 size=24877
[0m[48;5;0m[38;5;213m[mpeg @ 0x41e74476c3f0] [0m[48;5;0m[38;5;196mbuffer underflow st=0 bufi=18487 size=24877
[0m[48;5;0m[38;5;213m[mpeg @ 0x41e74476c3f0] [0m[48;5;0m[38;5;196mbuffer underflow st=0 bufi=20528 size=24877
[0m[48;5;0m[38;5;213m[mpeg @ 0x41e74476c3f0] [0m[48;5;0m[38;5;196mbuffer underflow st=0 bufi=22569 size=24877
[0m[48;5;0m[38;5;213m[mpeg @ 0x41e74476c3f0] [0m[48;5;0m[38;5;196mbuffer underflow st=0 bufi=24610 size=24877
[0mpts:57600 pts_time:0.64 dts:54000 dts_time:0.6 duration:0 duration_time:0 stream_index:0
[48;5;0m[38;5;213m[mpeg @ 0x41e74476c3f0] [0m[48;5;0m[38;5;196mbuffer underflow st=0 bufi=1765 size=2044
[0mpts:61200 pts_time:0.68 dts:57600 dts_time:0.64 duration:0 duration_time:0 stream_index:0
[48;5;0m[38;5;213m[mpeg @ 0x41e74476c3f0] [0m[48;5;0m[38;5;196mbuffer underflow st=0 bufi=1753 size=7115
[0m[48;5;0m[38;5;213m[mpeg @ 0x41e74476c3f0] [0m[48;5;0m[38;5;196mbuffer underflow st=0 bufi=3794 size=7115
[0m[48;5;0m[38;5;213m[mpeg @ 0x41e74476c3f0] [0m[48;5;0m[38;5;196mbuffer underflow st=0 bufi=5835 size=7115
[0mpts:64800 pts_time:0.72 dts:61200 dts_time:0.68 duration:0 duration_time:0 stream_index:0
[48;5;0m[38;5;213m[mpeg @ 0x41e74476c3f0] [0m[48;5;0m[38;5;196mbuffer underflow st=0 bufi=752 size=1140
[0mpts:68400 pts_time:0.76 dts:64800 dts_time:0.72 duration:0 duration_time:0 stream_index:0
[48;5;0m[38;5;213m[mpeg @ 0x41e74476c3f0] [0m[48;5;0m[38;5;196mbuffer underflow st=0 bufi=1644 size=8297
[0m[48;5;0m[38;5;213m[mpeg @ 0x41e74476c3f0] [0m[48;5;0m[38;5;196mbuffer underflow st=0 bufi=3685 size=8297
[0m[48;5;0m[38;5;213m[mpeg @ 0x41e74476c3f0] [0m[48;5;0m[38;5;196mbuffer underflow st=0 bufi=5726 size=8297
[0m[48;5;0m[38;5;213m[mpeg @ 0x41e74476c3f0] [0m[48;5;0m[38;5;196mbuffer underflow st=0 bufi=7767 size=8297
[0mpts:72000 pts_time:0.8 dts:68400 dts_time:0.76 duration:0 duration_time:0 stream_index:0
pts:75600 pts_time:0.84 dts:72000 dts_time:0.8 duration:0 duration_time:0 stream_index:0
[48;5;0m[38;5;213m[mpeg @ 0x41e74476c3f0] [0m[48;5;0m[38;5;196mbuffer underflow st=0 bufi=608 size=6909
[0m[48;5;0m[38;5;213m[mpeg @ 0x41e74476c3f0] [0m[48;5;0m[38;5;196mbuffer underflow st=0 bufi=2649 size=6909
[0m[48;5;0m[38;5;213m[mpeg @ 0x41e74476c3f0] [0m[48;5;0m[38;5;196mbuffer underflow st=0 bufi=4690 size=6909
[0m[48;5;0m[38;5;213m[mpeg @ 0x41e74476c3f0] [0m[48;5;0m[38;5;196mbuffer underflow st=0 bufi=6731 size=6909
[0mpts:79200 pts_time:0.88 dts:75600 dts_time:0.84 duration:0 duration_time:0 stream_index:0
pts:82800 pts_time:0.92 dts:79200 dts_time:0.88 duration:0 duration_time:0 stream_index:0
[48;5;0m[38;5;213m[mpeg @ 0x41e74476c3f0] [0m[48;5;0m[38;5;196mbuffer underflow st=0 bufi=864 size=6936
[0m[48;5;0m[38;5;213m[mpeg @ 0x41e74476c3f0] [0m[48;5;0m[38;5;196mbuffer underflow st=0 bufi=2905 size=6936
[0m[48;5;0m[38;5;213m[mpeg @ 0x41e74476c3f0] [0m[48;5;0m[38;5;196mbuffer underflow st=0 bufi=4946 size=6936
[0mpts:86400 pts_time:0.96 dts:82800 dts_time:0.92 duration:0 duration_time:0 stream_index:0
[48;5;0m[38;5;213m[mpeg @ 0x41e74476c3f0] [0m[48;5;0m[38;5;196mbuffer underflow st=0 bufi=42 size=891
[0mpts:90000 pts_time:1 dts:86400 dts_time:0.96 duration:0 duration_time:0 stream_index:0
[48;5;0m[38;5;213m[mpeg @ 0x41e74476c3f0] [0m[48;5;0m[38;5;196mbuffer underflow st=0 bufi=1183 size=3928
[0m[48;5;0m[38;5;213m[mpeg @ 0x41e74476c3f0] [0m[48;5;0m[38;5;196mbuffer underflow st=0 bufi=3224 size=3928
[0mpts:93600 pts_time:1.04 dts:90000 dts_time:1 duration:0 duration_time:0 stream_index:0
pts:97200 pts_time:1.08 dts:93600 dts_time:1.04 duration:0 duration_time:0 stream_index:0
[48;5;0m[38;5;213m[mpeg @ 0x41e74476c3f0] [0m[48;5;0m[38;5;196mbuffer underflow st=0 bufi=419 size=13445
[0m[48;5;0m[38;5;213m[mpeg @ 0x41e74476c3f0] [0m[48;5;0m[38;5;196mbuffer underflow st=0 bufi=2460 size=13445
[0m[48;5;0m[38;5;213m[mpeg @ 0x41e74476c3f0] [0m[48;5;0m[38;5;196mbuffer underflow st=0 bufi=4501 size=13445
[0m[48;5;0m[38;5;213m[mpeg @ 0x41e74476c3f0] [0m[48;5;0m[38;5;196mbuffer underflow st=0 bufi=6542 size=13445
[0m[48;5;0m[38;5;213m[mpeg @ 0x41e74476c3f0] [0m[48;5;0m[38;5;196mbuffer underflow st=0 bufi=8583 size=13445
[0m[48;5;0m[38;5;213m[mpeg @ 0x41e74476c3f0] [0m[48;5;0m[38;5;196mbuffer underflow st=0 bufi=10624 size=13445
[0m[48;5;0m[38;5;213m[mpeg @ 0x41e74476c3f0] [0m[48;5;0m[38;5;196mbuffer underflow st=0 bufi=12665 size=13445
[0mpts:100800 pts_time:1.12 dts:97200 dts_time:1.08 duration:0 duration_time:0 stream_index:0
pts:104400 pts_time:1.16 dts:100800 dts_time:1.12 duration:0 duration_time:0 stream_index:0
[48;5;0m[38;5;213m[mpeg @ 0x41e74476c3f0] [0m[48;5;0m[38;5;196mbuffer underflow st=0 bufi=451 size=2645
[0m[48;5;0m[38;5;213m[mpeg @ 0x41e74476c3f0] [0m[48;5;0m[38;5;196mbuffer underflow st=0 bufi=2492 size=2645
[0mpts:108000 pts_time:1.2 dts:104400 dts_time:1.16 duration:0 duration_time:0 stream_index:0
pts:111600 pts_time:1.24 dts:108000 dts_time:1.2 duration:0 duration_time:0 stream_index:0
pts:115200 pts_time:1.28 dts:111600 dts_time:1.24 duration:0 duration_time:0 stream_index:0
[48;5;0m[38;5;213m[mpeg @ 0x41e74476c3f0] [0m[48;5;0m[38;5;196mbuffer underflow st=0 bufi=540 size=1302
[0mpts:118800 pts_time:1.32 dts:115200 dts_time:1.28 duration:0 duration_time:0 stream_index:0
[48;5;0m[38;5;213m[mpeg @ 0x41e74476c3f0] [0m[48;5;0m[38;5;196mbuffer underflow st=0 bufi=1270 size=6334
[0m[48;5;0m[38;5;213m[mpeg @ 0x41e74476c3f0] [0m[48;5;0m[38;5;196mbuffer underflow st=0 bufi=3311 size=6334
[0m[48;5;0m[38;5;213m[mpeg @ 0x41e74476c3f0] [0m[48;5;0m[38;5;196mbuffer underflow st=0 bufi=5352 size=6334
[0mpts:122400 pts_time:1.36 dts:118800 dts_time:1.32 duration:0 duration_time:0 stream_index:0
pts:126000 pts_time:1.4 dts:122400 dts_time:1.36 duration:0 duration_time:0 stream_index:0
[48;5;0m[38;5;213m[mpeg @ 0x41e74476c3f0] [0m[48;5;0m[38;5;196mbuffer underflow st=0 bufi=285 size=863
[0mpts:129600 pts_time:1.44 dts:126000 dts_time:1.4 duration:0 duration_time:0 stream_index:0
pts:133200 pts_time:1.48 dts:129600 dts_time:1.44 duration:0 duration_time:0 stream_index:0
[48;5;0m[38;5;213m[mpeg @ 0x41e74476c3f0] [0m[48;5;0m[38;5;196mbuffer underflow st=0 bufi=143 size=4631
[0m[48;5;0m[38;5;213m[mpeg @ 0x41e74476c3f0] [0m[48;5;0m[38;5;196mbuffer underflow st=0 bufi=2184 size=4631
[0m[48;5;0m[38;5;213m[mpeg @ 0x41e74476c3f0] [0m[48;5;0m[38;5;196mbuffer underflow st=0 bufi=4225 size=4631
[0mpts:136800 pts_time:1.52 dts:133200 dts_time:1.48 duration:0 duration_time:0 stream_index:0
pts:140400 pts_time:1.56 dts:136800 dts_time:1.52 duration:0 duration_time:0 stream_index:0
[48;5;0m[38;5;213m[mpeg @ 0x41e74476c3f0] [0m[48;5;0m[38;5;196mbuffer underflow st=0 bufi=804 size=13830
[0m[48;5;0m[38;5;213m[mpeg @ 0x41e74476c3f0] [0m[48;5;0m[38;5;196mbuffer underflow st=0 bufi=2833 size=13830
[0m[48;5;0m[38;5;213m[mpeg @ 0x41e74476c3f0] [0m[48;5;0m[38;5;196mbuffer underflow st=0 bufi=4874 size=13830
[0m[48;5;0m[38;5;213m[mpeg @ 0x41e74476c3f0] [0m[48;5;0m[38;5;196mbuffer underflow st=0 bufi=6915 size=13830
[0m[48;5;0m[38;5;213m[mpeg @ 0x41e74476c3f0] [0m[48;5;0m[38;5;196mbuffer underflow st=0 bufi=8956 size=13830
[0m[48;5;0m[38;5;213m[mpeg @ 0x41e74476c3f0] [0m[48;5;0m[38;5;196mbuffer underflow st=0 bufi=10997 size=13830
[0m[48;5;0m[38;5;213m[mpeg @ 0x41e74476c3f0] [0m[48;5;0m[38;5;196mbuffer underflow st=0 bufi=13038 size=13830
[0mpts:144000 pts_time:1.6 dts:140400 dts_time:1.56 duration:0 duration_time:0 stream_index:0
pts:147600 pts_time:1.64 dts:144000 dts_time:1.6 duration:0 duration_time:0 stream_index:0
[48;5;0m[38;5;213m[mpeg @ 0x41e74476c3f0] [0m[48;5;0m[38;5;196mbuffer underflow st=0 bufi=860 size=1067
[0mpts:151200 pts_time:1.68 dts:147600 dts_time:1.64 duration:0 duration_time:0 stream_index:0
pts:154800 pts_time:1.72 dts:151200 dts_time:1.68 duration:0 duration_time:0 stream_index:0
[48;5;0m[38;5;213m[mpeg @ 0x41e74476c3f0] [0m[48;5;0m[38;5;196mbuffer underflow st=0 bufi=42 size=769
[0mpts:158400 pts_time:1.76 dts:154800 dts_time:1.72 duration:0 duration_time:0 stream_index:0
[48;5;0m[38;5;213m[mpeg @ 0x41e74476c3f0] [0m[48;5;0m[38;5;196mbuffer underflow st=0 bufi=1305 size=4495
[0m[48;5;0m[38;5;213m[mpeg @ 0x41e74476c3f0] [0m[48;5;0m[38;5;196mbuffer underflow st=0 bufi=3346 size=4495
[0mpts:162000 pts_time:1.8 dts:158400 dts_time:1.76 duration:0 duration_time:0 stream_index:0
pts:165600 pts_time:1.84 dts:162000 dts_time:1.8 duration:0 duration_time:0 stream_index:0
[48;5;0m[38;5;213m[mpeg @ 0x41e74476c3f0] [0m[48;5;0m[38;5;196mbuffer underflow st=0 bufi=455 size=860
[0mpts:169200 pts_time:1.88 dts:165600 dts_time:1.84 duration:0 duration_time:0 stream_index:0
pts:172800 pts_time:1.92 dts:169200 dts_time:1.88 duration:0 duration_time:0 stream_index:0
[48;5;0m[38;5;213m[mpeg @ 0x41e74476c3f0] [0m[48;5;0m[38;5;196mbuffer underflow st=0 bufi=1022 size=1600
[0mpts:176400 pts_time:1.96 dts:172800 dts_time:1.92 duration:0 duration_time:0 stream_index:0
pts:180000 pts_time:2 dts:176400 dts_time:1.96 duration:0 duration_time:0 stream_index:0
[48;5;0m[38;5;213m[mpeg @ 0x41e74476c3f0] [0m[48;5;0m[38;5;196mbuffer underflow st=0 bufi=665 size=787
[0mpts:183600 pts_time:2.04 dts:180000 dts_time:2 duration:0 duration_time:0 stream_index:0
[48;5;0m[38;5;213m[mpeg @ 0x41e74476c3f0] [0m[48;5;0m[38;5;196mbuffer underflow st=0 bufi=1910 size=19433
[0m[48;5;0m[38;5;213m[mpeg @ 0x41e74476c3f0] [0m[48;5;0m[38;5;196mbuffer underflow st=0 bufi=3951 size=19433
[0m[48;5;0m[38;5;213m[mpeg @ 0x41e74476c3f0] [0m[48;5;0m[38;5;196mbuffer underflow st=0 bufi=5992 size=19433
[0m[48;5;0m[38;5;213m[mpeg @ 0x41e74476c3f0] [0m[48;5;0m[38;5;196mbuffer underflow st=0 bufi=8033 size=19433
[0m[48;5;0m[38;5;213m[mpeg @ 0x41e74476c3f0] [0m[48;5;0m[38;5;196mbuffer underflow st=0 bufi=10074 size=19433
[0m[48;5;0m[38;5;213m[mpeg @ 0x41e74476c3f0] [0m[48;5;0m[38;5;196mbuffer underflow st=0 bufi=12115 size=19433
[0m[48;5;0m[38;5;213m[mpeg @ 0x41e74476c3f0] [0m[48;5;0m[38;5;196mbuffer underflow st=0 bufi=14156 size=19433
[0m[48;5;0m[38;5;213m[mpeg @ 0x41e74476c3f0] [0m[48;5;0m[38;5;196mbuffer underflow st=0 bufi=16197 size=19433
[0m[48;5;0m[38;5;213m[mpeg @ 0x41e74476c3f0] [0m[48;5;0m[38;5;196mbuffer underflow st=0 bufi=18238 size=19433
[0mpts:187200 pts_time:2.08 dts:183600 dts_time:2.04 duration:0 duration_time:0 stream_index:0
pts:190800 pts_time:2.12 dts:187200 dts_time:2.08 duration:0 duration_time:0 stream_index:0
[48;5;0m[38;5;213m[mpeg @ 0x41e74476c3f0] [0m[48;5;0m[38;5;196mbuffer underflow st=0 bufi=636 size=4368
[0m[48;5;0m[38;5;213m[mpeg @ 0x41e74476c3f0] [0m[48;5;0m[38;5;196mbuffer underflow st=0 bufi=2677 size=4368
[0mpts:194400 pts_time:2.16 dts:190800 dts_time:2.12 duration:0 duration_time:0 stream_index:0
[48;5;0m[38;5;213m[mpeg @ 0x41e74476c3f0] [0m[48;5;0m[38;5;196mbuffer underflow st=0 bufi=341 size=645
[0mpts:198000 pts_time:2.2 dts:194400 dts_time:2.16 duration:0 duration_time:0 stream_index:0
pts:201600 pts_time:2.24 dts:198000 dts_time:2.2 duration:0 duration_time:0 stream_index:0
pts:205200 pts_time:2.28 dts:201600 dts_time:2.24 duration:0 duration_time:0 stream_index:0
[48;5;0m[38;5;213m[mpeg @ 0x41e74476c3f0] [0m[48;5;0m[38;5;196mbuffer underflow st=0 bufi=115 size=848
[0mpts:208800 pts_time:2.32 dts:205200 dts_time:2.28 duration:0 duration_time:0 stream_index:0
pts:212400 pts_time:2.36 dts:208800 dts_time:2.32 duration:0 duration_time:0 stream_index:0
pts:216000 pts_time:2.4 dts:212400 dts_time:2.36 duration:0 duration_time:0 stream_index:0
[48;5;0m[38;5;213m[mpeg @ 0x41e74476c3f0] [0m[48;5;0m[38;5;196mbuffer underflow st=0 bufi=17 size=1667
[0mpts:219600 pts_time:2.44 dts:216000 dts_time:2.4 duration:0 duration_time:0 stream_index:0
pts:223200 pts_time:2.48 dts:219600 dts_time:2.44 duration:0 duration_time:0 stream_index:0
[48;5;0m[38;5;213m[mpeg @ 0x41e74476c3f0] [0m[48;5;0m[38;5;196mbuffer underflow st=0 bufi=241 size=1520
[0mpts:226800 pts_time:2.52 dts:223200 dts_time:2.48 duration:0 duration_time:0 stream_index:0
[48;5;0m[38;5;213m[mpeg @ 0x41e74476c3f0] [0m[48;5;0m[38;5;196mbuffer underflow st=0 bufi=753 size=23834
[0m[48;5;0m[38;5;213m[mpeg @ 0x41e74476c3f0] [0m[48;5;0m[38;5;196mbuffer underflow st=0 bufi=2794 size=23834
[0m[48;5;0m[38;5;213m[mpeg @ 0x41e74476c3f0] [0m[48;5;0m[38;5;196mbuffer underflow st=0 bufi=4835 size=23834
[0m[48;5;0m[38;5;213m[mpeg @ 0x41e74476c3f0] [0m[48;5;0m[38;5;196mbuffer underflow st=0 bufi=6876 size=23834
[0m[48;5;0m[38;5;213m[mpeg @ 0x41e74476c3f0] [0m[48;5;0m[38;5;196mbuffer underflow st=0 bufi=8917 size=23834
[0m[48;5;0m[38;5;213m[mpeg @ 0x41e74476c3f0] [0m[48;5;0m[38;5;196mbuffer underflow st=0 bufi=10958 size=23834
[0m[48;5;0m[38;5;213m[mpeg @ 0x41e74476c3f0] [0m[48;5;0m[38;5;196mbuffer underflow st=0 bufi=12999 size=23834
[0m[48;5;0m[38;5;213m[mpeg @ 0x41e74476c3f0] [0m[48;5;0m[38;5;196mbuffer underflow st=0 bufi=15040 size=23834
[0m[48;5;0m[38;5;213m[mpeg @ 0x41e74476c3f0] [0m[48;5;0m[38;5;196mbuffer underflow st=0 bufi=17081 size=23834
[0m[48;5;0m[38;5;213m[mpeg @ 0x41e74476c3f0] [0m[48;5;0m[38;5;196mbuffer underflow st=0 bufi=19122 size=23834
[0m[48;5;0m[38;5;213m[mpeg @ 0x41e74476c3f0] [0m[48;5;0m[38;5;196mbuffer underflow st=0 bufi=21163 size=23834
[0m[48;5;0m[38;5;213m[mpeg @ 0x41e74476c3f0] [0m[48;5;0m[38;5;196mbuffer underflow st=0 bufi=23204 size=23834
[0mpts:230400 pts_time:2.56 dts:226800 dts_time:2.52 duration:0 duration_time:0 stream_index:0
[48;5;0m[38;5;213m[mpeg @ 0x41e74476c3f0] [0m[48;5;0m[38;5;196mbuffer underflow st=0 bufi=1402 size=1622
[0mpts:234000 pts_time:2.6 dts:230400 dts_time:2.56 duration:0 duration_time:0 stream_index:0
pts:237600 pts_time:2.64 dts:234000 dts_time:2.6 duration:0 duration_time:0 stream_index:0
[48;5;0m[38;5;213m[mpeg @ 0x41e74476c3f0] [0m[48;5;0m[38;5;196mbuffer underflow st=0 bufi=1431 size=1749
[0mpts:241200 pts_time:2.68 dts:237600 dts_time:2.64 duration:0 duration_time:0 stream_index:0
pts:244800 pts_time:2.72 dts:241200 dts_time:2.68 duration:0 duration_time:0 stream_index:0
pts:248400 pts_time:2.76 dts:244800 dts_time:2.72 duration:0 duration_time:0 stream_index:0
[48;5;0m[38;5;213m[mpeg @ 0x41e74476c3f0] [0m[48;5;0m[38;5;196mbuffer underflow st=0 bufi=814 size=1806
[0mpts:252000 pts_time:2.8 dts:248400 dts_time:2.76 duration:0 duration_time:0 stream_index:0
pts:255600 pts_time:2.84 dts:252000 dts_time:2.8 duration:0 duration_time:0 stream_index:0
pts:259200 pts_time:2.88 dts:255600 dts_time:2.84 duration:0 duration_time:0 stream_index:0
[48;5;0m[38;5;213m[mpeg @ 0x41e74476c3f0] [0m[48;5;0m[38;5;196mbuffer underflow st=0 bufi=728 size=2203
[0mpts:262800 pts_time:2.92 dts:259200 dts_time:2.88 duration:0 duration_time:0 stream_index:0
[48;5;0m[38;5;213m[mpeg @ 0x41e74476c3f0] [0m[48;5;0m[38;5;196mbuffer underflow st=0 bufi=557 size=4459
[0m[48;5;0m[38;5;213m[mpeg @ 0x41e74476c3f0] [0m[48;5;0m[38;5;196mbuffer underflow st=0 bufi=2598 size=4459
[0mpts:266400 pts_time:2.96 dts:262800 dts_time:2.92 duration:0 duration_time:0 stream_index:0
[48;5;0m[38;5;213m[mpeg @ 0x41e74476c3f0] [0m[48;5;0m[38;5;196mbuffer underflow st=0 bufi=171 size=560
[0mpts:270000 pts_time:3 dts:266400 dts_time:2.96 duration:0 duration_time:0 stream_index:0
[48;5;0m[38;5;213m[mpeg @ 0x41e74476c3f0] [0m[48;5;0m[38;5;196mbuffer underflow st=0 bufi=1643 size=16547
[0m[48;5;0m[38;5;213m[mpeg @ 0x41e74476c3f0] [0m[48;5;0m[38;5;196mbuffer underflow st=0 bufi=3684 size=16547
[0m[48;5;0m[38;5;213m[mpeg @ 0x41e74476c3f0] [0m[48;5;0m[38;5;196mbuffer underflow st=0 bufi=5725 size=16547
[0m[48;5;0m[38;5;213m[mpeg @ 0x41e74476c3f0] [0m[48;5;0m[38;5;196mbuffer underflow st=0 bufi=7766 size=16547
[0m[48;5;0m[38;5;213m[mpeg @ 0x41e74476c3f0] [0m[48;5;0m[38;5;196mbuffer underflow st=0 bufi=9807 size=16547
[0m[48;5;0m[38;5;213m[mpeg @ 0x41e74476c3f0] [0m[48;5;0m[38;5;196mbuffer underflow st=0 bufi=11836 size=16547
[0m[48;5;0m[38;5;213m[mpeg @ 0x41e74476c3f0] [0m[48;5;0m[38;5;196mbuffer underflow st=0 bufi=13877 size=16547
[0m[48;5;0m[38;5;213m[mpeg @ 0x41e74476c3f0] [0m[48;5;0m[38;5;196mbuffer underflow st=0 bufi=15918 size=16547
[0mpts:273600 pts_time:3.04 dts:270000 dts_time:3 duration:0 duration_time:0 stream_index:0
pts:277200 pts_time:3.08 dts:273600 dts_time:3.04 duration:0 duration_time:0 stream_index:0
[48;5;0m[38;5;213m[mpeg @ 0x41e74476c3f0] [0m[48;5;0m[38;5;196mbuffer underflow st=0 bufi=925 size=1797
[0mpts:280800 pts_time:3.12 dts:277200 dts_time:3.08 duration:0 duration_time:0 stream_index:0
pts:284400 pts_time:3.16 dts:280800 dts_time:3.12 duration:0 duration_time:0 stream_index:0
[48;5;0m[38;5;213m[mpeg @ 0x41e74476c3f0] [0m[48;5;0m[38;5;196mbuffer underflow st=0 bufi=906 size=1307
[0mpts:288000 pts_time:3.2 dts:284400 dts_time:3.16 duration:0 duration_time:0 stream_index:0
pts:291600 pts_time:3.24 dts:288000 dts_time:3.2 duration:0 duration_time:0 stream_index:0
pts:295200 pts_time:3.28 dts:291600 dts_time:3.24 duration:0 duration_time:0 stream_index:0
[48;5;0m[38;5;213m[mpeg @ 0x41e74476c3f0] [0m[48;5;0m[38;5;196mbuffer underflow st=0 bufi=208 size=2690
[0m[48;5;0m[38;5;213m[mpeg @ 0x41e74476c3f0] [0m[48;5;0m[38;5;196mbuffer underflow st=0 bufi=2249 size=2690
[0mpts:298800 pts_time:3.32 dts:295200 dts_time:3.28 duration:0 duration_time:0 stream_index:0
[48;5;0m[38;5;213m[mpeg @ 0x41e74476c3f0] [0m[48;5;0m[38;5;196mbuffer underflow st=0 bufi=1591 size=2868
[0mpts:302400 pts_time:3.36 dts:298800 dts_time:3.32 duration:0 duration_time:0 stream_index:0
pts:306000 pts_time:3.4 dts:302400 dts_time:3.36 duration:0 duration_time:0 stream_index:0
[48;5;0m[38;5;213m[mpeg @ 0x41e74476c3f0] [0m[48;5;0m[38;5;196mbuffer underflow st=0 bufi=345 size=809
[0mpts:309600 pts_time:3.44 dts:306000 dts_time:3.4 duration:0 duration_time:0 stream_index:0
pts:313200 pts_time:3.48 dts:309600 dts_time:3.44 duration:0 duration_time:0 stream_index:0
[48;5;0m[38;5;213m[mpeg @ 0x41e74476c3f0] [0m[48;5;0m[38;5;196mbuffer underflow st=0 bufi=1057 size=19641
[0m[48;5;0m[38;5;213m[mpeg @ 0x41e74476c3f0] [0m[48;5;0m[38;5;196mbuffer underflow st=0 bufi=3098 size=19641
[0m[48;5;0m[38;5;213m[mpeg @ 0x41e74476c3f0] [0m[48;5;0m[38;5;196mbuffer underflow st=0 bufi=5139 size=19641
[0m[48;5;0m[38;5;213m[mpeg @ 0x41e74476c3f0] [0m[48;5;0m[38;5;196mbuffer underflow st=0 bufi=7180 size=19641
[0m[48;5;0m[38;5;213m[mpeg @ 0x41e74476c3f0] [0m[48;5;0m[38;5;196mbuffer underflow st=0 bufi=9221 size=19641
[0m[48;5;0m[38;5;213m[mpeg @ 0x41e74476c3f0] [0m[48;5;0m[38;5;196mbuffer underflow st=0 bufi=11262 size=19641
[0m[48;5;0m[38;5;213m[mpeg @ 0x41e74476c3f0] [0m[48;5;0m[38;5;196mbuffer underflow st=0 bufi=13303 size=19641
[0m[48;5;0m[38;5;213m[mpeg @ 0x41e74476c3f0] [0m[48;5;0m[38;5;196mbuffer underflow st=0 bufi=15344 size=19641
[0m[48;5;0m[38;5;213m[mpeg @ 0x41e74476c3f0] [0m[48;5;0m[38;5;196mbuffer underflow st=0 bufi=17385 size=19641
[0m[48;5;0m[38;5;213m[mpeg @ 0x41e74476c3f0] [0m[48;5;0m[38;5;196mbuffer underflow st=0 bufi=19426 size=19641
[0mpts:316800 pts_time:3.52 dts:313200 dts_time:3.48 duration:0 duration_time:0 stream_index:0
pts:320400 pts_time:3.56 dts:316800 dts_time:3.52 duration:0 duration_time:0 stream_index:0
pts:324000 pts_time:3.6 dts:320400 dts_time:3.56 duration:0 duration_time:0 stream_index:0
[48;5;0m[38;5;213m[mpeg @ 0x41e74476c3f0] [0m[48;5;0m[38;5;196mbuffer underflow st=0 bufi=1539 size=1552
[0mpts:327600 pts_time:3.64 dts:324000 dts_time:3.6 duration:0 duration_time:0 stream_index:0
pts:331200 pts_time:3.68 dts:327600 dts_time:3.64 duration:0 duration_time:0 stream_index:0
[48;5;0m[38;5;213m[mpeg @ 0x41e74476c3f0] [0m[48;5;0m[38;5;196mbuffer underflow st=0 bufi=23 size=621
[0mpts:334800 pts_time:3.72 dts:331200 dts_time:3.68 duration:0 duration_time:0 stream_index:0
pts:338400 pts_time:3.76 dts:334800 dts_time:3.72 duration:0 duration_time:0 stream_index:0
pts:342000 pts_time:3.8 dts:338400 dts_time:3.76 duration:0 duration_time:0 stream_index:0
[48;5;0m[38;5;213m[mpeg @ 0x41e74476c3f0] [0m[48;5;0m[38;5;196mbuffer underflow st=0 bufi=67 size=479
[0mpts:345600 pts_time:3.84 dts:342000 dts_time:3.8 duration:0 duration_time:0 stream_index:0
[48;5;0m[38;5;213m[mpeg @ 0x41e74476c3f0] [0m[48;5;0m[38;5;196mbuffer underflow st=0 bufi=1620 size=4228
[0m[48;5;0m[38;5;213m[mpeg @ 0x41e74476c3f0] [0m[48;5;0m[38;5;196mbuffer underflow st=0 bufi=3661 size=4228
[0mpts:349200 pts_time:3.88 dts:345600 dts_time:3.84 duration:0 duration_time:0 stream_index:0
pts:352800 pts_time:3.92 dts:349200 dts_time:3.88 duration:0 duration_time:0 stream_index:0
pts:356400 pts_time:3.96 dts:352800 dts_time:3.92 duration:0 duration_time:0 stream_index:0
[48;5;0m[38;5;213m[mpeg @ 0x41e74476c3f0] [0m[48;5;0m[38;5;196mbuffer underflow st=0 bufi=1296 size=23134
[0m[48;5;0m[38;5;213m[mpeg @ 0x41e74476c3f0] [0m[48;5;0m[38;5;196mbuffer underflow st=0 bufi=3337 size=23134
[0m[48;5;0m[38;5;213m[mpeg @ 0x41e74476c3f0] [0m[48;5;0m[38;5;196mbuffer underflow st=0 bufi=5378 size=23134
[0m[48;5;0m[38;5;213m[mpeg @ 0x41e74476c3f0] [0m[48;5;0m[38;5;196mbuffer underflow st=0 bufi=7419 size=23134
[0m[48;5;0m[38;5;213m[mpeg @ 0x41e74476c3f0] [0m[48;5;0m[38;5;196mbuffer underflow st=0 bufi=9460 size=23134
[0m[48;5;0m[38;5;213m[mpeg @ 0x41e74476c3f0] [0m[48;5;0m[38;5;196mbuffer underflow st=0 bufi=11501 size=23134
[0m[48;5;0m[38;5;213m[mpeg @ 0x41e74476c3f0] [0m[48;5;0m[38;5;196mbuffer underflow st=0 bufi=13542 size=23134
[0m[48;5;0m[38;5;213m[mpeg @ 0x41e74476c3f0] [0m[48;5;0m[38;5;196mbuffer underflow st=0 bufi=15583 size=23134
[0m[48;5;0m[38;5;213m[mpeg @ 0x41e74476c3f0] [0m[48;5;0m[38;5;196mbuffer underflow st=0 bufi=17624 size=23134
[0m[48;5;0m[38;5;213m[mpeg @ 0x41e74476c3f0] [0m[48;5;0m[38;5;196mbuffer underflow st=0 bufi=19665 size=23134
[0m[48;5;0m[38;5;213m[mpeg @ 0x41e74476c3f0] [0m[48;5;0m[38;5;196mbuffer underflow st=0 bufi=21706 size=23134
[0mpts:360000 pts_time:4 dts:356400 dts_time:3.96 duration:0 duration_time:0 stream_index:0
pts:363600 pts_time:4.04 dts:360000 dts_time:4 duration:0 duration_time:0 stream_index:0
[48;5;0m[38;5;213m[mpeg @ 0x41e74476c3f0] [0m[48;5;0m[38;5;196mbuffer underflow st=0 bufi=391 size=29890
[0m[48;5;0m[38;5;213m[mpeg @ 0x41e74476c3f0] [0m[48;5;0m[38;5;196mbuffer underflow st=0 bufi=2432 size=29890
[0m[48;5;0m[38;5;213m[mpeg @ 0x41e74476c3f0] [0m[48;5;0m[38;5;196mbuffer underflow st=0 bufi=4473 size=29890
[0m[48;5;0m[38;5;213m[mpeg @ 0x41e74476c3f0] [0m[48;5;0m[38;5;196mbuffer underflow st=0 bufi=6514 size=29890
[0m[48;5;0m[38;5;213m[mpeg @ 0x41e74476c3f0] [0m[48;5;0m[38;5;196mbuffer underflow st=0 bufi=8555 size=29890
[0m[48;5;0m[38;5;213m[mpeg @ 0x41e74476c3f0] [0m[48;5;0m[38;5;196mbuffer underflow st=0 bufi=10596 size=29890
[0m[48;5;0m[38;5;213m[mpeg @ 0x41e74476c3f0] [0m[48;5;0m[38;5;196mbuffer underflow st=0 bufi=12637 size=29890
[0m[48;5;0m[38;5;213m[mpeg @ 0x41e74476c3f0] [0m[48;5;0m[38;5;196mbuffer underflow st=0 bufi=14678 size=29890
[0m[48;5;0m[38;5;213m[mpeg @ 0x41e74476c3f0] [0m[48;5;0m[38;5;196mbuffer underflow st=0 bufi=16719 size=29890
[0m[48;5;0m[38;5;213m[mpeg @ 0x41e74476c3f0] [0m[48;5;0m[38;5;196mbuffer underflow st=0 bufi=18760 size=29890
[0m[48;5;0m[38;5;213m[mpeg @ 0x41e74476c3f0] [0m[48;5;0m[38;5;196mbuffer underflow st=0 bufi=20801 size=29890
[0m[48;5;0m[38;5;213m[mpeg @ 0x41e74476c3f0] [0m[48;5;0m[38;5;196mbuffer underflow st=0 bufi=22842 size=29890
[0m[48;5;0m[38;5;213m[mpeg @ 0x41e74476c3f0] [0m[48;5;0m[38;5;196mbuffer underflow st=0 bufi=24883 size=29890
[0m[48;5;0m[38;5;213m[mpeg @ 0x41e74476c3f0] [0m[48;5;0m[38;5;196mbuffer underflow st=0 bufi=26924 size=29890
[0m[48;5;0m[38;5;213m[mpeg @ 0x41e74476c3f0] [0m[48;5;0m[38;5;196mbuffer underflow st=0 bufi=28965 size=29890
[0mpts:367200 pts_time:4.08 dts:363600 dts_time:4.04 duration:0 duration_time:0 stream_index:0
[48;5;0m[38;5;213m[mpeg @ 0x41e74476c3f0] [0m[48;5;0m[38;5;196mbuffer underflow st=0 bufi=1107 size=6156
[0m[48;5;0m[38;5;213m[mpeg @ 0x41e74476c3f0] [0m[48;5;0m[38;5;196mbuffer underflow st=0 bufi=3148 size=6156
[0m[48;5;0m[38;5;213m[mpeg @ 0x41e74476c3f0] [0m[48;5;0m[38;5;196mbuffer underflow st=0 bufi=5177 size=6156
[0mpts:370800 pts_time:4.12 dts:367200 dts_time:4.08 duration:0 duration_time:0 stream_index:0
[48;5;0m[38;5;213m[mpeg @ 0x41e74476c3f0] [0m[48;5;0m[38;5;196mbuffer underflow st=0 bufi=1053 size=5046
[0m[48;5;0m[38;5;213m[mpeg @ 0x41e74476c3f0] [0m[48;5;0m[38;5;196mbuffer underflow st=0 bufi=3094 size=5046
[0mpts:374400 pts_time:4.16 dts:370800 dts_time:4.12 duration:0 duration_time:0 stream_index:0
[48;5;0m[38;5;213m[mpeg @ 0x41e74476c3f0] [0m[48;5;0m[38;5;196mbuffer underflow st=0 bufi=80 size=3409
[0m[48;5;0m[38;5;213m[mpeg @ 0x41e74476c3f0] [0m[48;5;0m[38;5;196mbuffer underflow st=0 bufi=2121 size=3409
[0mpts:378000 pts_time:4.2 dts:374400 dts_time:4.16 duration:0 duration_time:0 stream_index:0
[48;5;0m[38;5;213m[mpeg @ 0x41e74476c3f0] [0m[48;5;0m[38;5;196mbuffer underflow st=0 bufi=744 size=2621
[0mpts:381600 pts_time:4.24 dts:378000 dts_time:4.2 duration:0 duration_time:0 stream_index:0
[48;5;0m[38;5;213m[mpeg @ 0x41e74476c3f0] [0m[48;5;0m[38;5;196mbuffer underflow st=0 bufi=155 size=3649
[0m[48;5;0m[38;5;213m[mpeg @ 0x41e74476c3f0] [0m[48;5;0m[38;5;196mbuffer underflow st=0 bufi=2196 size=3649
[0mpts:385200 pts_time:4.28 dts:381600 dts_time:4.24 duration:0 duration_time:0 stream_index:0
[48;5;0m[38;5;213m[mpeg @ 0x41e74476c3f0] [0m[48;5;0m[38;5;196mbuffer underflow st=0 bufi=579 size=2904
[0m[48;5;0m[38;5;213m[mpeg @ 0x41e74476c3f0] [0m[48;5;0m[38;5;196mbuffer underflow st=0 bufi=2620 size=2904
[0mpts:388800 pts_time:4.32 dts:385200 dts_time:4.28 duration:0 duration_time:0 stream_index:0
[48;5;0m[38;5;213m[mpeg @ 0x41e74476c3f0] [0m[48;5;0m[38;5;196mbuffer underflow st=0 bufi=1748 size=2526
[0mpts:392400 pts_time:4.36 dts:388800 dts_time:4.32 duration:0 duration_time:0 stream_index:0
[48;5;0m[38;5;213m[mpeg @ 0x41e74476c3f0] [0m[48;5;0m[38;5;196mbuffer underflow st=0 bufi=1254 size=3229
[0mpts:396000 pts_time:4.4 dts:392400 dts_time:4.36 duration:0 duration_time:0 stream_index:0
[48;5;0m[38;5;213m[mpeg @ 0x41e74476c3f0] [0m[48;5;0m[38;5;196mbuffer underflow st=0 bufi=57 size=2363
[0m[48;5;0m[38;5;213m[mpeg @ 0x41e74476c3f0] [0m[48;5;0m[38;5;196mbuffer underflow st=0 bufi=2098 size=2363
[0mpts:399600 pts_time:4.44 dts:396000 dts_time:4.4 duration:0 duration_time:0 stream_index:0
[48;5;0m[38;5;213m[mpeg @ 0x41e74476c3f0] [0m[48;5;0m[38;5;196mbuffer underflow st=0 bufi=1767 size=12541
[0m[48;5;0m[38;5;213m[mpeg @ 0x41e74476c3f0] [0m[48;5;0m[38;5;196mbuffer underflow st=0 bufi=3808 size=12541
[0m[48;5;0m[38;5;213m[mpeg @ 0x41e74476c3f0] [0m[48;5;0m[38;5;196mbuffer underflow st=0 bufi=5849 size=12541
[0m[48;5;0m[38;5;213m[mpeg @ 0x41e74476c3f0] [0m[48;5;0m[38;5;196mbuffer underflow st=0 bufi=7890 size=12541
[0m[48;5;0m[38;5;213m[mpeg @ 0x41e74476c3f0] [0m[48;5;0m[38;5;196mbuffer underflow st=0 bufi=9931 size=12541
[0m[48;5;0m[38;5;213m[mpeg @ 0x41e74476c3f0] [0m[48;5;0m[38;5;196mbuffer underflow st=0 bufi=11972 size=12541
[0mpts:403200 pts_time:4.48 dts:399600 dts_time:4.44 duration:0 duration_time:0 stream_index:0
[48;5;0m[38;5;213m[mpeg @ 0x41e74476c3f0] [0m[48;5;0m[38;5;196mbuffer underflow st=0 bufi=1463 size=2865
[0mpts:406800 pts_time:4.52 dts:403200 dts_time:4.48 duration:0 duration_time:0 stream_index:0
[48;5;0m[38;5;213m[mpeg @ 0x41e74476c3f0] [0m[48;5;0m[38;5;196mbuffer underflow st=0 bufi=630 size=2386
[0mpts:410400 pts_time:4.56 dts:406800 dts_time:4.52 duration:0 duration_time:0 stream_index:0
[48;5;0m[38;5;213m[mpeg @ 0x41e74476c3f0] [0m[48;5;0m[38;5;196mbuffer underflow st=0 bufi=276 size=2660
[0m[48;5;0m[38;5;213m[mpeg @ 0x41e74476c3f0] [0m[48;5;0m[38;5;196mbuffer underflow st=0 bufi=2317 size=2660
[0mpts:414000 pts_time:4.6 dts:410400 dts_time:4.56 duration:0 duration_time:0 stream_index:0
[48;5;0m[38;5;213m[mpeg @ 0x41e74476c3f0] [0m[48;5;0m[38;5;196mbuffer underflow st=0 bufi=1689 size=2809
[0mpts:417600 pts_time:4.64 dts:414000 dts_time:4.6 duration:0 duration_time:0 stream_index:0
[48;5;0m[38;5;213m[mpeg @ 0x41e74476c3f0] [0m[48;5;0m[38;5;196mbuffer underflow st=0 bufi=912 size=2366
[0mpts:421200 pts_time:4.68 dts:417600 dts_time:4.64 duration:0 duration_time:0 stream_index:0
[48;5;0m[38;5;213m[mpeg @ 0x41e74476c3f0] [0m[48;5;0m[38;5;196mbuffer underflow st=0 bufi=578 size=2677
[0m[48;5;0m[38;5;213m[mpeg @ 0x41e74476c3f0] [0m[48;5;0m[38;5;196mbuffer underflow st=0 bufi=2619 size=2677
[0mpts:424800 pts_time:4.72 dts:421200 dts_time:4.68 duration:0 duration_time:0 stream_index:0
[48;5;0m[38;5;213m[mpeg @ 0x41e74476c3f0] [0m[48;5;0m[38;5;196mbuffer underflow st=0 bufi=1974 size=2017
[0mpts:428400 pts_time:4.76 dts:424800 dts_time:4.72 duration:0 duration_time:0 stream_index:0
[48;5;0m[38;5;213m[mpeg @ 0x41e74476c3f0] [0m[48;5;0m[38;5;196mbuffer underflow st=0 bufi=1989 size=2894
[0mpts:432000 pts_time:4.8 dts:428400 dts_time:4.76 duration:0 duration_time:0 stream_index:0
[48;5;0m[38;5;213m[mpeg @ 0x41e74476c3f0] [0m[48;5;0m[38;5;196mbuffer underflow st=0 bufi=1127 size=1763
[0mpts:435600 pts_time:4.84 dts:432000 dts_time:4.8 duration:0 duration_time:0 stream_index:0
[48;5;0m[38;5;213m[mpeg @ 0x41e74476c3f0] [0m[48;5;0m[38;5;196mbuffer underflow st=0 bufi=1396 size=2553
[0mpts:439200 pts_time:4.88 dts:435600 dts_time:4.84 duration:0 duration_time:0 stream_index:0
[48;5;0m[38;5;213m[mpeg @ 0x41e74476c3f0] [0m[48;5;0m[38;5;196mbuffer underflow st=0 bufi=875 size=2523
[0mpts:442800 pts_time:4.92 dts:439200 dts_time:4.88 duration:0 duration_time:0 stream_index:0
[48;5;0m[38;5;213m[mpeg @ 0x41e74476c3f0] [0m[48;5;0m[38;5;196mbuffer underflow st=0 bufi=384 size=10308
[0m[48;5;0m[38;5;213m[mpeg @ 0x41e74476c3f0] [0m[48;5;0m[38;5;196mbuffer underflow st=0 bufi=2425 size=10308
[0m[48;5;0m[38;5;213m[mpeg @ 0x41e74476c3f0] [0m[48;5;0m[38;5;196mbuffer underflow st=0 bufi=4466 size=10308
[0m[48;5;0m[38;5;213m[mpeg @ 0x41e74476c3f0] [0m[48;5;0m[38;5;196mbuffer underflow st=0 bufi=6507 size=10308
[0m[48;5;0m[38;5;213m[mpeg @ 0x41e74476c3f0] [0m[48;5;0m[38;5;196mbuffer underflow st=0 bufi=8548 size=10308
[0mpts:446400 pts_time:4.96 dts:442800 dts_time:4.92 duration:0 duration_time:0 stream_index:0
[48;5;0m[38;5;213m[mpeg @ 0x41e74476c3f0] [0m[48;5;0m[38;5;196mbuffer underflow st=0 bufi=272 size=1652
[0mpts:450000 pts_time:5 dts:446400 dts_time:4.96 duration:0 duration_time:0 stream_index:0
[48;5;0m[38;5;213m[mpeg @ 0x41e74476c3f0] [0m[48;5;0m[38;5;196mbuffer underflow st=0 bufi=652 size=2713
[0m[48;5;0m[38;5;213m[mpeg @ 0x41e74476c3f0] [0m[48;5;0m[38;5;196mbuffer underflow st=0 bufi=2693 size=2713
[0mpts:453600 pts_time:5.04 dts:450000 dts_time:5 duration:0 duration_time:0 stream_index:0
[48;5;0m[38;5;213m[mpeg @ 0x41e74476c3f0] [0m[48;5;0m[38;5;196mbuffer underflow st=0 bufi=2012 size=2783
[0mpts:457200 pts_time:5.08 dts:453600 dts_time:5.04 duration:0 duration_time:0 stream_index:0
[48;5;0m[38;5;213m[mpeg @ 0x41e74476c3f0] [0m[48;5;0m[38;5;196mbuffer underflow st=0 bufi=1261 size=2087
[0mpts:460800 pts_time:5.12 dts:457200 dts_time:5.08 duration:0 duration_time:0 stream_index:0
[48;5;0m[38;5;213m[mpeg @ 0x41e74476c3f0] [0m[48;5;0m[38;5;196mbuffer underflow st=0 bufi=1206 size=2234
[0mpts:464400 pts_time:5.16 dts:460800 dts_time:5.12 duration:0 duration_time:0 stream_index:0
[48;5;0m[38;5;213m[mpeg @ 0x41e74476c3f0] [0m[48;5;0m[38;5;196mbuffer underflow st=0 bufi=1004 size=2288
[0mpts:468000 pts_time:5.2 dts:464400 dts_time:5.16 duration:0 duration_time:0 stream_index:0
[48;5;0m[38;5;213m[mpeg @ 0x41e74476c3f0] [0m[48;5;0m[38;5;196mbuffer underflow st=0 bufi=748 size=3580
[0m[48;5;0m[38;5;213m[mpeg @ 0x41e74476c3f0] [0m[48;5;0m[38;5;196mbuffer underflow st=0 bufi=2789 size=3580
[0mpts:471600 pts_time:5.24 dts:468000 dts_time:5.2 duration:0 duration_time:0 stream_index:0
[48;5;0m[38;5;213m[mpeg @ 0x41e74476c3f0] [0m[48;5;0m[38;5;196mbuffer underflow st=0 bufi=1241 size=2077
[0mpts:475200 pts_time:5.28 dts:471600 dts_time:5.24 duration:0 duration_time:0 stream_index:0
[48;5;0m[38;5;213m[mpeg @ 0x41e74476c3f0] [0m[48;5;0m[38;5;196mbuffer underflow st=0 bufi=1196 size=2771
[0mpts:478800 pts_time:5.32 dts:475200 dts_time:5.28 duration:0 duration_time:0 stream_index:0
[48;5;0m[38;5;213m[mpeg @ 0x41e74476c3f0] [0m[48;5;0m[38;5;196mbuffer underflow st=0 bufi=457 size=2969
[0m[48;5;0m[38;5;213m[mpeg @ 0x41e74476c3f0] [0m[48;5;0m[38;5;196mbuffer underflow st=0 bufi=2498 size=2969
[0mpts:482400 pts_time:5.36 dts:478800 dts_time:5.32 duration:0 duration_time:0 stream_index:0
[48;5;0m[38;5;213m[mpeg @ 0x41e74476c3f0] [0m[48;5;0m[38;5;196mbuffer underflow st=0 bufi=1561 size=2147
[0mpts:486000 pts_time:5.4 dts:482400 dts_time:5.36 duration:0 duration_time:0 stream_index:0
[48;5;0m[38;5;213m[mpeg @ 0x41e74476c3f0] [0m[48;5;0m[38;5;196mbuffer underflow st=0 bufi=1419 size=11206
[0m[48;5;0m[38;5;213m[mpeg @ 0x41e74476c3f0] [0m[48;5;0m[38;5;196mbuffer underflow st=0 bufi=3460 size=11206
[0m[48;5;0m[38;5;213m[mpeg @ 0x41e74476c3f0] [0m[48;5;0m[38;5;196mbuffer underflow st=0 bufi=5501 size=11206
[0m[48;5;0m[38;5;213m[mpeg @ 0x41e74476c3f0] [0m[48;5;0m[38;5;196mbuffer underflow st=0 bufi=7542 size=11206
[0m[48;5;0m[38;5;213m[mpeg @ 0x41e74476c3f0] [0m[48;5;0m[38;5;196mbuffer underflow st=0 bufi=9583 size=11206
[0mpts:489600 pts_time:5.44 dts:486000 dts_time:5.4 duration:0 duration_time:0 stream_index:0
[48;5;0m[38;5;213m[mpeg @ 0x41e74476c3f0] [0m[48;5;0m[38;5;196mbuffer underflow st=0 bufi=409 size=2362
[0mpts:493200 pts_time:5.48 dts:489600 dts_time:5.44 duration:0 duration_time:0 stream_index:0
[48;5;0m[38;5;213m[mpeg @ 0x41e74476c3f0] [0m[48;5;0m[38;5;196mbuffer underflow st=0 bufi=79 size=2154
[0m[48;5;0m[38;5;213m[mpeg @ 0x41e74476c3f0] [0m[48;5;0m[38;5;196mbuffer underflow st=0 bufi=2120 size=2154
[0mpts:496800 pts_time:5.52 dts:493200 dts_time:5.48 duration:0 duration_time:0 stream_index:0
[48;5;0m[38;5;213m[mpeg @ 0x41e74476c3f0] [0m[48;5;0m[38;5;196mbuffer underflow st=0 bufi=1998 size=3456
[0mpts:500400 pts_time:5.56 dts:496800 dts_time:5.52 duration:0 duration_time:0 stream_index:0
[48;5;0m[38;5;213m[mpeg @ 0x41e74476c3f0] [0m[48;5;0m[38;5;196mbuffer underflow st=0 bufi=574 size=2220
[0mpts:504000 pts_time:5.6 dts:500400 dts_time:5.56 duration:0 duration_time:0 stream_index:0
[48;5;0m[38;5;213m[mpeg @ 0x41e74476c3f0] [0m[48;5;0m[38;5;196mbuffer underflow st=0 bufi=386 size=2046
[0mpts:507600 pts_time:5.64 dts:504000 dts_time:5.6 duration:0 duration_time:0 stream_index:0
[48;5;0m[38;5;213m[mpeg @ 0x41e74476c3f0] [0m[48;5;0m[38;5;196mbuffer underflow st=0 bufi=372 size=3156
[0m[48;5;0m[38;5;213m[mpeg @ 0x41e74476c3f0] [0m[48;5;0m[38;5;196mbuffer underflow st=0 bufi=2413 size=3156
[0mpts:511200 pts_time:5.68 dts:507600 dts_time:5.64 duration:0 duration_time:0 stream_index:0
[48;5;0m[38;5;213m[mpeg @ 0x41e74476c3f0] [0m[48;5;0m[38;5;196mbuffer underflow st=0 bufi=1289 size=2175
[0mpts:514800 pts_time:5.72 dts:511200 dts_time:5.68 duration:0 duration_time:0 stream_index:0
[48;5;0m[38;5;213m[mpeg @ 0x41e74476c3f0] [0m[48;5;0m[38;5;196mbuffer underflow st=0 bufi=1146 size=2500
[0mpts:518400 pts_time:5.76 dts:514800 dts_time:5.72 duration:0 duration_time:0 stream_index:0
[48;5;0m[38;5;213m[mpeg @ 0x41e74476c3f0] [0m[48;5;0m[38;5;196mbuffer underflow st=0 bufi=678 size=1794
[0mpts:522000 pts_time:5.8 dts:518400 dts_time:5.76 duration:0 duration_time:0 stream_index:0
[48;5;0m[38;5;213m[mpeg @ 0x41e74476c3f0] [0m[48;5;0m[38;5;196mbuffer underflow st=0 bufi=916 size=1912
[0mpts:525600 pts_time:5.84 dts:522000 dts_time:5.8 duration:0 duration_time:0 stream_index:0
[48;5;0m[38;5;213m[mpeg @ 0x41e74476c3f0] [0m[48;5;0m[38;5;196mbuffer underflow st=0 bufi=1036 size=2486
[0mpts:529200 pts_time:5.88 dts:525600 dts_time:5.84 duration:0 duration_time:0 stream_index:0
[48;5;0m[38;5;213m[mpeg @ 0x41e74476c3f0] [0m[48;5;0m[38;5;196mbuffer underflow st=0 bufi=582 size=9607
[0m[48;5;0m[38;5;213m[mpeg @ 0x41e74476c3f0] [0m[48;5;0m[38;5;196mbuffer underflow st=0 bufi=2623 size=9607
[0m[48;5;0m[38;5;213m[mpeg @ 0x41e74476c3f0] [0m[48;5;0m[38;5;196mbuffer underflow st=0 bufi=4664 size=9607
[0m[48;5;0m[38;5;213m[mpeg @ 0x41e74476c3f0] [0m[48;5;0m[38;5;196mbuffer underflow st=0 bufi=6705 size=9607
[0m[48;5;0m[38;5;213m[mpeg @ 0x41e74476c3f0] [0m[48;5;0m[38;5;196mbuffer underflow st=0 bufi=8746 size=9607
[0mpts:532800 pts_time:5.92 dts:529200 dts_time:5.88 duration:0 duration_time:0 stream_index:0
[48;5;0m[38;5;213m[mpeg @ 0x41e74476c3f0] [0m[48;5;0m[38;5;196mbuffer underflow st=0 bufi=1171 size=1584
[0mpts:536400 pts_time:5.96 dts:532800 dts_time:5.92 duration:0 duration_time:0 stream_index:0
[48;5;0m[38;5;213m[mpeg @ 0x41e74476c3f0] [0m[48;5;0m[38;5;196mbuffer underflow st=0 bufi=1619 size=2555
[0mpts:540000 pts_time:6 dts:536400 dts_time:5.96 duration:0 duration_time:0 stream_index:0
[48;5;0m[38;5;213m[mpeg @ 0x41e74476c3f0] [0m[48;5;0m[38;5;196mbuffer underflow st=0 bufi=1096 size=2540
[0mpts:543600 pts_time:6.04 dts:540000 dts_time:6 duration:0 duration_time:0 stream_index:0
[48;5;0m[38;5;213m[mpeg @ 0x41e74476c3f0] [0m[48;5;0m[38;5;196mbuffer underflow st=0 bufi=588 size=1960
[0mpts:547200 pts_time:6.08 dts:543600 dts_time:6.04 duration:0 duration_time:0 stream_index:0
[48;5;0m[38;5;213m[mpeg @ 0x41e74476c3f0] [0m[48;5;0m[38;5;196mbuffer underflow st=0 bufi=660 size=1522
[0mpts:550800 pts_time:6.12 dts:547200 dts_time:6.08 duration:0 duration_time:0 stream_index:0
[48;5;0m[38;5;213m[mpeg @ 0x41e74476c3f0] [0m[48;5;0m[38;5;196mbuffer underflow st=0 bufi=1170 size=2530
[0mpts:554400 pts_time:6.16 dts:550800 dts_time:6.12 duration:0 duration_time:0 stream_index:0
[48;5;0m[38;5;213m[mpeg @ 0x41e74476c3f0] [0m[48;5;0m[38;5;196mbuffer underflow st=0 bufi=672 size=2116
[0mpts:558000 pts_time:6.2 dts:554400 dts_time:6.16 duration:0 duration_time:0 stream_index:0
[48;5;0m[38;5;213m[mpeg @ 0x41e74476c3f0] [0m[48;5;0m[38;5;196mbuffer underflow st=0 bufi=588 size=2362
[0mpts:561600 pts_time:6.24 dts:558000 dts_time:6.2 duration:0 duration_time:0 stream_index:0
[48;5;0m[38;5;213m[mpeg @ 0x41e74476c3f0] [0m[48;5;0m[38;5;196mbuffer underflow st=0 bufi=258 size=1785
[0mpts:565200 pts_time:6.28 dts:561600 dts_time:6.24 duration:0 duration_time:0 stream_index:0
[48;5;0m[38;5;213m[mpeg @ 0x41e74476c3f0] [0m[48;5;0m[38;5;196mbuffer underflow st=0 bufi=505 size=2464
[0mpts:568800 pts_time:6.32 dts:565200 dts_time:6.28 duration:0 duration_time:0 stream_index:0
[48;5;0m[38;5;213m[mpeg @ 0x41e74476c3f0] [0m[48;5;0m[38;5;196mbuffer underflow st=0 bufi=73 size=1903
[0mpts:572400 pts_time:6.36 dts:568800 dts_time:6.32 duration:0 duration_time:0 stream_index:0
[48;5;0m[38;5;213m[mpeg @ 0x41e74476c3f0] [0m[48;5;0m[38;5;196mbuffer underflow st=0 bufi=202 size=10824
[0m[48;5;0m[38;5;213m[mpeg @ 0x41e74476c3f0] [0m[48;5;0m[38;5;196mbuffer underflow st=0 bufi=2243 size=10824
[0m[48;5;0m[38;5;213m[mpeg @ 0x41e74476c3f0] [0m[48;5;0m[38;5;196mbuffer underflow st=0 bufi=4284 size=10824
[0m[48;5;0m[38;5;213m[mpeg @ 0x41e74476c3f0] [0m[48;5;0m[38;5;196mbuffer underflow st=0 bufi=6325 size=10824
[0m[48;5;0m[38;5;213m[mpeg @ 0x41e74476c3f0] [0m[48;5;0m[38;5;196mbuffer underflow st=0 bufi=8366 size=10824
[0m[48;5;0m[38;5;213m[mpeg @ 0x41e74476c3f0] [0m[48;5;0m[38;5;196mbuffer underflow st=0 bufi=10407 size=10824
[0mpts:576000 pts_time:6.4 dts:572400 dts_time:6.36 duration:0 duration_time:0 stream_index:0
[48;5;0m[38;5;213m[mpeg @ 0x41e74476c3f0] [0m[48;5;0m[38;5;196mbuffer underflow st=0 bufi=1615 size=2109
[0mpts:579600 pts_time:6.44 dts:576000 dts_time:6.4 duration:0 duration_time:0 stream_index:0
[48;5;0m[38;5;213m[mpeg @ 0x41e74476c3f0] [0m[48;5;0m[38;5;196mbuffer underflow st=0 bufi=1538 size=1602
[0mpts:583200 pts_time:6.48 dts:579600 dts_time:6.44 duration:0 duration_time:0 stream_index:0
[48;5;0m[38;5;213m[mpeg @ 0x41e74476c3f0] [0m[48;5;0m[38;5;196mbuffer underflow st=0 bufi=1968 size=3003
[0mpts:586800 pts_time:6.52 dts:583200 dts_time:6.48 duration:0 duration_time:0 stream_index:0
[48;5;0m[38;5;213m[mpeg @ 0x41e74476c3f0] [0m[48;5;0m[38;5;196mbuffer underflow st=0 bufi=997 size=1831
[0mpts:590400 pts_time:6.56 dts:586800 dts_time:6.52 duration:0 duration_time:0 stream_index:0
[48;5;0m[38;5;213m[mpeg @ 0x41e74476c3f0] [0m[48;5;0m[38;5;196mbuffer underflow st=0 bufi=1198 size=2493
[0mpts:594000 pts_time:6.6 dts:590400 dts_time:6.56 duration:0 duration_time:0 stream_index:0
[48;5;0m[38;5;213m[mpeg @ 0x41e74476c3f0] [0m[48;5;0m[38;5;196mbuffer underflow st=0 bufi=737 size=1979
[0mpts:597600 pts_time:6.64 dts:594000 dts_time:6.6 duration:0 duration_time:0 stream_index:0
[48;5;0m[38;5;213m[mpeg @ 0x41e74476c3f0] [0m[48;5;0m[38;5;196mbuffer underflow st=0 bufi=790 size=2402
[0mpts:601200 pts_time:6.68 dts:597600 dts_time:6.64 duration:0 duration_time:0 stream_index:0
[48;5;0m[38;5;213m[mpeg @ 0x41e74476c3f0] [0m[48;5;0m[38;5;196mbuffer underflow st=0 bufi=420 size=2068
[0mpts:604800 pts_time:6.72 dts:601200 dts_time:6.68 duration:0 duration_time:0 stream_index:0
[48;5;0m[38;5;213m[mpeg @ 0x41e74476c3f0] [0m[48;5;0m[38;5;196mbuffer underflow st=0 bufi=384 size=1525
[0mpts:608400 pts_time:6.76 dts:604800 dts_time:6.72 duration:0 duration_time:0 stream_index:0
[48;5;0m[38;5;213m[mpeg @ 0x41e74476c3f0] [0m[48;5;0m[38;5;196mbuffer underflow st=0 bufi=891 size=2378
[0mpts:612000 pts_time:6.8 dts:608400 dts_time:6.76 duration:0 duration_time:0 stream_index:0
[48;5;0m[38;5;213m[mpeg @ 0x41e74476c3f0] [0m[48;5;0m[38;5;196mbuffer underflow st=0 bufi=545 size=2067
[0mpts:615600 pts_time:6.84 dts:612000 dts_time:6.8 duration:0 duration_time:0 stream_index:0
[48;5;0m[38;5;213m[mpeg @ 0x41e74476c3f0] [0m[48;5;0m[38;5;196mbuffer underflow st=0 bufi=510 size=9611
[0m[48;5;0m[38;5;213m[mpeg @ 0x41e74476c3f0] [0m[48;5;0m[38;5;196mbuffer underflow st=0 bufi=2539 size=9611
[0m[48;5;0m[38;5;213m[mpeg @ 0x41e74476c3f0] [0m[48;5;0m[38;5;196mbuffer underflow st=0 bufi=4580 size=9611
[0m[48;5;0m[38;5;213m[mpeg @ 0x41e74476c3f0] [0m[48;5;0m[38;5;196mbuffer underflow st=0 bufi=6621 size=9611
[0m[48;5;0m[38;5;213m[mpeg @ 0x41e74476c3f0] [0m[48;5;0m[38;5;196mbuffer underflow st=0 bufi=8662 size=9611
[0mpts:619200 pts_time:6.88 dts:615600 dts_time:6.84 duration:0 duration_time:0 stream_index:0
[48;5;0m[38;5;213m[mpeg @ 0x41e74476c3f0] [0m[48;5;0m[38;5;196mbuffer underflow st=0 bufi=1083 size=1568
[0mpts:622800 pts_time:6.92 dts:619200 dts_time:6.88 duration:0 duration_time:0 stream_index:0
[48;5;0m[38;5;213m[mpeg @ 0x41e74476c3f0] [0m[48;5;0m[38;5;196mbuffer underflow st=0 bufi=1547 size=2553
[0mpts:626400 pts_time:6.96 dts:622800 dts_time:6.92 duration:0 duration_time:0 stream_index:0
[48;5;0m[38;5;213m[mpeg @ 0x41e74476c3f0] [0m[48;5;0m[38;5;196mbuffer underflow st=0 bufi=1026 size=2531
[0mpts:630000 pts_time:7 dts:626400 dts_time:6.96 duration:0 duration_time:0 stream_index:0
[48;5;0m[38;5;213m[mpeg @ 0x41e74476c3f0] [0m[48;5;0m[38;5;196mbuffer underflow st=0 bufi=527 size=1956
[0mpts:633600 pts_time:7.04 dts:630000 dts_time:7 duration:0 duration_time:0 stream_index:0
[48;5;0m[38;5;213m[mpeg @ 0x41e74476c3f0] [0m[48;5;0m[38;5;196mbuffer underflow st=0 bufi=603 size=1494
[0mpts:637200 pts_time:7.08 dts:633600 dts_time:7.04 duration:0 duration_time:0 stream_index:0
[48;5;0m[38;5;213m[mpeg @ 0x41e74476c3f0] [0m[48;5;0m[38;5;196mbuffer underflow st=0 bufi=1141 size=2521
[0mpts:640800 pts_time:7.12 dts:637200 dts_time:7.08 duration:0 duration_time:0 stream_index:0
[48;5;0m[38;5;213m[mpeg @ 0x41e74476c3f0] [0m[48;5;0m[38;5;196mbuffer underflow st=0 bufi=652 size=2021
[0mpts:644400 pts_time:7.16 dts:640800 dts_time:7.12 duration:0 duration_time:0 stream_index:0
[48;5;0m[38;5;213m[mpeg @ 0x41e74476c3f0] [0m[48;5;0m[38;5;196mbuffer underflow st=0 bufi=663 size=2460
[0mpts:648000 pts_time:7.2 dts:644400 dts_time:7.16 duration:0 duration_time:0 stream_index:0
[48;5;0m[38;5;213m[mpeg @ 0x41e74476c3f0] [0m[48;5;0m[38;5;196mbuffer underflow st=0 bufi=235 size=2159
[0mpts:651600 pts_time:7.24 dts:648000 dts_time:7.2 duration:0 duration_time:0 stream_index:0
[48;5;0m[38;5;213m[mpeg @ 0x41e74476c3f0] [0m[48;5;0m[38;5;196mbuffer underflow st=0 bufi=108 size=3002
[0m[48;5;0m[38;5;213m[mpeg @ 0x41e74476c3f0] [0m[48;5;0m[38;5;196mbuffer underflow st=0 bufi=2149 size=3002
[0mpts:655200 pts_time:7.28 dts:651600 dts_time:7.24 duration:0 duration_time:0 stream_index:0
[48;5;0m[38;5;213m[mpeg @ 0x41e74476c3f0] [0m[48;5;0m[38;5;196mbuffer underflow st=0 bufi=1179 size=2232
[0mpts:658800 pts_time:7.32 dts:655200 dts_time:7.28 duration:0 duration_time:0 stream_index:0
[48;5;0m[38;5;213m[mpeg @ 0x41e74476c3f0] [0m[48;5;0m[38;5;196mbuffer underflow st=0 bufi=979 size=11266
[0m[48;5;0m[38;5;213m[mpeg @ 0x41e74476c3f0] [0m[48;5;0m[38;5;196mbuffer underflow st=0 bufi=3020 size=11266
[0m[48;5;0m[38;5;213m[mpeg @ 0x41e74476c3f0] [0m[48;5;0m[38;5;196mbuffer underflow st=0 bufi=5061 size=11266
[0m[48;5;0m[38;5;213m[mpeg @ 0x41e74476c3f0] [0m[48;5;0m[38;5;196mbuffer underflow st=0 bufi=7102 size=11266
[0m[48;5;0m[38;5;213m[mpeg @ 0x41e74476c3f0] [0m[48;5;0m[38;5;196mbuffer underflow st=0 bufi=9143 size=11266
[0m[48;5;0m[38;5;213m[mpeg @ 0x41e74476c3f0] [0m[48;5;0m[38;5;196mbuffer underflow st=0 bufi=11184 size=11266
[0mpts:662400 pts_time:7.36 dts:658800 dts_time:7.32 duration:0 duration_time:0 stream_index:0
[48;5;0m[38;5;213m[mpeg @ 0x41e74476c3f0] [0m[48;5;0m[38;5;196mbuffer underflow st=0 bufi=1950 size=2377
[0mpts:666000 pts_time:7.4 dts:662400 dts_time:7.36 duration:0 duration_time:0 stream_index:0
[48;5;0m[38;5;213m[mpeg @ 0x41e74476c3f0] [0m[48;5;0m[38;5;196mbuffer underflow st=0 bufi=1605 size=2154
[0mpts:669600 pts_time:7.44 dts:666000 dts_time:7.4 duration:0 duration_time:0 stream_index:0
[48;5;0m[38;5;213m[mpeg @ 0x41e74476c3f0] [0m[48;5;0m[38;5;196mbuffer underflow st=0 bufi=1483 size=3545
[0m[48;5;0m[38;5;213m[mpeg @ 0x41e74476c3f0] [0m[48;5;0m[38;5;196mbuffer underflow st=0 bufi=3524 size=3545
[0mpts:673200 pts_time:7.48 dts:669600 dts_time:7.44 duration:0 duration_time:0 stream_index:0
[48;5;0m[38;5;213m[mpeg @ 0x41e74476c3f0] [0m[48;5;0m[38;5;196mbuffer underflow st=0 bufi=2011 size=2294
[0mpts:676800 pts_time:7.52 dts:673200 dts_time:7.48 duration:0 duration_time:0 stream_index:0
[48;5;0m[38;5;213m[mpeg @ 0x41e74476c3f0] [0m[48;5;0m[38;5;196mbuffer underflow st=0 bufi=1749 size=2087
[0mpts:680400 pts_time:7.56 dts:676800 dts_time:7.52 duration:0 duration_time:0 stream_index:0
[48;5;0m[38;5;213m[mpeg @ 0x41e74476c3f0] [0m[48;5;0m[38;5;196mbuffer underflow st=0 bufi=1694 size=3630
[0mpts:684000 pts_time:7.6 dts:680400 dts_time:7.56 duration:0 duration_time:0 stream_index:0
[48;5;0m[38;5;213m[mpeg @ 0x41e74476c3f0] [0m[48;5;0m[38;5;196mbuffer underflow st=0 bufi=96 size=2366
[0m[48;5;0m[38;5;213m[mpeg @ 0x41e74476c3f0] [0m[48;5;0m[38;5;196mbuffer underflow st=0 bufi=2137 size=2366
[0mpts:687600 pts_time:7.64 dts:684000 dts_time:7.6 duration:0 duration_time:0 stream_index:0
[48;5;0m[38;5;213m[mpeg @ 0x41e74476c3f0] [0m[48;5;0m[38;5;196mbuffer underflow st=0 bufi=1803 size=3239
[0mpts:691200 pts_time:7.68 dts:687600 dts_time:7.64 duration:0 duration_time:0 stream_index:0
[48;5;0m[38;5;213m[mpeg @ 0x41e74476c3f0] [0m[48;5;0m[38;5;196mbuffer underflow st=0 bufi=596 size=1871
[0mpts:694800 pts_time:7.72 dts:691200 dts_time:7.68 duration:0 duration_time:0 stream_index:0
[48;5;0m[38;5;213m[mpeg @ 0x41e74476c3f0] [0m[48;5;0m[38;5;196mbuffer underflow st=0 bufi=757 size=1880
[0mpts:698400 pts_time:7.76 dts:694800 dts_time:7.72 duration:0 duration_time:0 stream_index:0
[48;5;0m[38;5;213m[mpeg @ 0x41e74476c3f0] [0m[48;5;0m[38;5;196mbuffer underflow st=0 bufi=909 size=1867
[0mpts:702000 pts_time:7.8 dts:698400 dts_time:7.76 duration:0 duration_time:0 stream_index:0
[48;5;0m[38;5;213m[mpeg @ 0x41e74476c3f0] [0m[48;5;0m[38;5;196mbuffer underflow st=0 bufi=1074 size=9311
[0m[48;5;0m[38;5;213m[mpeg @ 0x41e74476c3f0] [0m[48;5;0m[38;5;196mbuffer underflow st=0 bufi=3115 size=9311
[0m[48;5;0m[38;5;213m[mpeg @ 0x41e74476c3f0] [0m[48;5;0m[38;5;196mbuffer underflow st=0 bufi=5156 size=9311
[0m[48;5;0m[38;5;213m[mpeg @ 0x41e74476c3f0] [0m[48;5;0m[38;5;196mbuffer underflow st=0 bufi=7197 size=9311
[0m[48;5;0m[38;5;213m[mpeg @ 0x41e74476c3f0] [0m[48;5;0m[38;5;196mbuffer underflow st=0 bufi=9238 size=9311
[0mpts:705600 pts_time:7.84 dts:702000 dts_time:7.8 duration:0 duration_time:0 stream_index:0
pts:709200 pts_time:7.88 dts:705600 dts_time:7.84 duration:0 duration_time:0 stream_index:0
[48;5;0m[38;5;213m[mpeg @ 0x41e74476c3f0] [0m[48;5;0m[38;5;196mbuffer underflow st=0 bufi=630 size=2104
[0mpts:712800 pts_time:7.92 dts:709200 dts_time:7.88 duration:0 duration_time:0 stream_index:0
[48;5;0m[38;5;213m[mpeg @ 0x41e74476c3f0] [0m[48;5;0m[38;5;196mbuffer underflow st=0 bufi=558 size=2257
[0mpts:716400 pts_time:7.96 dts:712800 dts_time:7.92 duration:0 duration_time:0 stream_index:0
[48;5;0m[38;5;213m[mpeg @ 0x41e74476c3f0] [0m[48;5;0m[38;5;196mbuffer underflow st=0 bufi=333 size=1603
[0mpts:720000 pts_time:8 dts:716400 dts_time:7.96 duration:0 duration_time:0 stream_index:0
[48;5;0m[38;5;213m[mpeg @ 0x41e74476c3f0] [0m[48;5;0m[38;5;196mbuffer underflow st=0 bufi=762 size=1257
[0mpts:723600 pts_time:8.04 dts:720000 dts_time:8 duration:0 duration_time:0 stream_index:0
[48;5;0m[38;5;213m[mpeg @ 0x41e74476c3f0] [0m[48;5;0m[38;5;196mbuffer underflow st=0 bufi=1537 size=2674
[0mpts:727200 pts_time:8.08 dts:723600 dts_time:8.04 duration:0 duration_time:0 stream_index:0
[48;5;0m[38;5;213m[mpeg @ 0x41e74476c3f0] [0m[48;5;0m[38;5;196mbuffer underflow st=0 bufi=895 size=2116
[0mpts:730800 pts_time:8.12 dts:727200 dts_time:8.08 duration:0 duration_time:0 stream_index:0
[48;5;0m[38;5;213m[mpeg @ 0x41e74476c3f0] [0m[48;5;0m[38;5;196mbuffer underflow st=0 bufi=811 size=2527
[0mpts:734400 pts_time:8.16 dts:730800 dts_time:8.12 duration:0 duration_time:0 stream_index:0
[48;5;0m[38;5;213m[mpeg @ 0x41e74476c3f0] [0m[48;5;0m[38;5;196mbuffer underflow st=0 bufi=316 size=1866
[0mpts:738000 pts_time:8.2 dts:734400 dts_time:8.16 duration:0 duration_time:0 stream_index:0
[48;5;0m[38;5;213m[mpeg @ 0x41e74476c3f0] [0m[48;5;0m[38;5;196mbuffer underflow st=0 bufi=482 size=2645
[0m[48;5;0m[38;5;213m[mpeg @ 0x41e74476c3f0] [0m[48;5;0m[38;5;196mbuffer underflow st=0 bufi=2523 size=2645
[0mpts:741600 pts_time:8.24 dts:738000 dts_time:8.2 duration:0 duration_time:0 stream_index:0
[48;5;0m[38;5;213m[mpeg @ 0x41e74476c3f0] [0m[48;5;0m[38;5;196mbuffer underflow st=0 bufi=1910 size=1942
[0mpts:745200 pts_time:8.28 dts:741600 dts_time:8.24 duration:0 duration_time:0 stream_index:0
[48;5;0m[38;5;213m[mpeg @ 0x41e74476c3f0] [0m[48;5;0m[38;5;196mbuffer underflow st=0 bufi=2000 size=10916
[0m[48;5;0m[38;5;213m[mpeg @ 0x41e74476c3f0] [0m[48;5;0m[38;5;196mbuffer underflow st=0 bufi=4029 size=10916
[0m[48;5;0m[38;5;213m[mpeg @ 0x41e74476c3f0] [0m[48;5;0m[38;5;196mbuffer underflow st=0 bufi=6070 size=10916
[0m[48;5;0m[38;5;213m[mpeg @ 0x41e74476c3f0] [0m[48;5;0m[38;5;196mbuffer underflow st=0 bufi=8111 size=10916
[0m[48;5;0m[38;5;213m[mpeg @ 0x41e74476c3f0] [0m[48;5;0m[38;5;196mbuffer underflow st=0 bufi=10152 size=10916
[0mpts:748800 pts_time:8.32 dts:745200 dts_time:8.28 duration:0 duration_time:0 stream_index:0
[48;5;0m[38;5;213m[mpeg @ 0x41e74476c3f0] [0m[48;5;0m[38;5;196mbuffer underflow st=0 bufi=1268 size=2153
[0mpts:752400 pts_time:8.36 dts:748800 dts_time:8.32 duration:0 duration_time:0 stream_index:0
[48;5;0m[38;5;213m[mpeg @ 0x41e74476c3f0] [0m[48;5;0m[38;5;196mbuffer underflow st=0 bufi=1147 size=1582
[0mpts:756000 pts_time:8.4 dts:752400 dts_time:8.36 duration:0 duration_time:0 stream_index:0
[48;5;0m[38;5;213m[mpeg @ 0x41e74476c3f0] [0m[48;5;0m[38;5;196mbuffer underflow st=0 bufi=1597 size=2892
[0mpts:759600 pts_time:8.44 dts:756000 dts_time:8.4 duration:0 duration_time:0 stream_index:0
[48;5;0m[38;5;213m[mpeg @ 0x41e74476c3f0] [0m[48;5;0m[38;5;196mbuffer underflow st=0 bufi=737 size=1971
[0mpts:763200 pts_time:8.48 dts:759600 dts_time:8.44 duration:0 duration_time:0 stream_index:0
[48;5;0m[38;5;213m[mpeg @ 0x41e74476c3f0] [0m[48;5;0m[38;5;196mbuffer underflow st=0 bufi=798 size=2127
[0mpts:766800 pts_time:8.52 dts:763200 dts_time:8.48 duration:0 duration_time:0 stream_index:0
[48;5;0m[38;5;213m[mpeg @ 0x41e74476c3f0] [0m[48;5;0m[38;5;196mbuffer underflow st=0 bufi=703 size=2382
[0mpts:770400 pts_time:8.56 dts:766800 dts_time:8.52 duration:0 duration_time:0 stream_index:0
[48;5;0m[38;5;213m[mpeg @ 0x41e74476c3f0] [0m[48;5;0m[38;5;196mbuffer underflow st=0 bufi=353 size=1958
[0mpts:774000 pts_time:8.6 dts:770400 dts_time:8.56 duration:0 duration_time:0 stream_index:0
[48;5;0m[38;5;213m[mpeg @ 0x41e74476c3f0] [0m[48;5;0m[38;5;196mbuffer underflow st=0 bufi=427 size=2443
[0mpts:777600 pts_time:8.64 dts:774000 dts_time:8.6 duration:0 duration_time:0 stream_index:0
[48;5;0m[38;5;213m[mpeg @ 0x41e74476c3f0] [0m[48;5;0m[38;5;196mbuffer underflow st=0 bufi=16 size=1679
[0mpts:781200 pts_time:8.68 dts:777600 dts_time:8.64 duration:0 duration_time:0 stream_index:0
[48;5;0m[38;5;213m[mpeg @ 0x41e74476c3f0] [0m[48;5;0m[38;5;196mbuffer underflow st=0 bufi=369 size=2259
[0mpts:784800 pts_time:8.72 dts:781200 dts_time:8.68 duration:0 duration_time:0 stream_index:0
[48;5;0m[38;5;213m[mpeg @ 0x41e74476c3f0] [0m[48;5;0m[38;5;196mbuffer underflow st=0 bufi=142 size=2160
[0mpts:788400 pts_time:8.76 dts:784800 dts_time:8.72 duration:0 duration_time:0 stream_index:0
[48;5;0m[38;5;213m[mpeg @ 0x41e74476c3f0] [0m[48;5;0m[38;5;196mbuffer underflow st=0 bufi=14 size=9640
[0m[48;5;0m[38;5;213m[mpeg @ 0x41e74476c3f0] [0m[48;5;0m[38;5;196mbuffer underflow st=0 bufi=2055 size=9640
[0m[48;5;0m[38;5;213m[mpeg @ 0x41e74476c3f0] [0m[48;5;0m[38;5;196mbuffer underflow st=0 bufi=4096 size=9640
[0m[48;5;0m[38;5;213m[mpeg @ 0x41e74476c3f0] [0m[48;5;0m[38;5;196mbuffer underflow st=0 bufi=6137 size=9640
[0m[48;5;0m[38;5;213m[mpeg @ 0x41e74476c3f0] [0m[48;5;0m[38;5;196mbuffer underflow st=0 bufi=8178 size=9640
[0mpts:792000 pts_time:8.8 dts:788400 dts_time:8.76 duration:0 duration_time:0 stream_index:0
[48;5;0m[38;5;213m[mpeg @ 0x41e74476c3f0] [0m[48;5;0m[38;5;196mbuffer underflow st=0 bufi=570 size=1564
[0mpts:795600 pts_time:8.84 dts:792000 dts_time:8.8 duration:0 duration_time:0 stream_index:0
[48;5;0m[38;5;213m[mpeg @ 0x41e74476c3f0] [0m[48;5;0m[38;5;196mbuffer underflow st=0 bufi=1038 size=2560
[0mpts:799200 pts_time:8.88 dts:795600 dts_time:8.84 duration:0 duration_time:0 stream_index:0
[48;5;0m[38;5;213m[mpeg @ 0x41e74476c3f0] [0m[48;5;0m[38;5;196mbuffer underflow st=0 bufi=510 size=2671
[0m[48;5;0m[38;5;213m[mpeg @ 0x41e74476c3f0] [0m[48;5;0m[38;5;196mbuffer underflow st=0 bufi=2551 size=2671
[0mpts:802800 pts_time:8.92 dts:799200 dts_time:8.88 duration:0 duration_time:0 stream_index:0
[48;5;0m[38;5;213m[mpeg @ 0x41e74476c3f0] [0m[48;5;0m[38;5;196mbuffer underflow st=0 bufi=1912 size=1941
[0mpts:806400 pts_time:8.96 dts:802800 dts_time:8.92 duration:0 duration_time:0 stream_index:0
pts:810000 pts_time:9 dts:806400 dts_time:8.96 duration:0 duration_time:0 stream_index:0
[48;5;0m[38;5;213m[mpeg @ 0x41e74476c3f0] [0m[48;5;0m[38;5;196mbuffer underflow st=0 bufi=545 size=2519
[0mpts:813600 pts_time:9.04 dts:810000 dts_time:9 duration:0 duration_time:0 stream_index:0
[48;5;0m[38;5;213m[mpeg @ 0x41e74476c3f0] [0m[48;5;0m[38;5;196mbuffer underflow st=0 bufi=58 size=2060
[0mpts:817200 pts_time:9.08 dts:813600 dts_time:9.04 duration:0 duration_time:0 stream_index:0
[48;5;0m[38;5;213m[mpeg @ 0x41e74476c3f0] [0m[48;5;0m[38;5;196mbuffer underflow st=0 bufi=30 size=2406
[0m[48;5;0m[38;5;213m[mpeg @ 0x41e74476c3f0] [0m[48;5;0m[38;5;196mbuffer underflow st=0 bufi=2071 size=2406
[0mpts:820800 pts_time:9.12 dts:817200 dts_time:9.08 duration:0 duration_time:0 stream_index:0
[48;5;0m[38;5;213m[mpeg @ 0x41e74476c3f0] [0m[48;5;0m[38;5;196mbuffer underflow st=0 bufi=1697 size=1874
[0mpts:824400 pts_time:9.16 dts:820800 dts_time:9.12 duration:0 duration_time:0 stream_index:0
[48;5;0m[38;5;213m[mpeg @ 0x41e74476c3f0] [0m[48;5;0m[38;5;196mbuffer underflow st=0 bufi=1855 size=2384
[0mpts:828000 pts_time:9.2 dts:824400 dts_time:9.16 duration:0 duration_time:0 stream_index:0
[48;5;0m[38;5;213m[mpeg @ 0x41e74476c3f0] [0m[48;5;0m[38;5;196mbuffer underflow st=0 bufi=1503 size=2019
[0mpts:831600 pts_time:9.24 dts:828000 dts_time:9.2 duration:0 duration_time:0 stream_index:0
[48;5;0m[38;5;213m[mpeg @ 0x41e74476c3f0] [0m[48;5;0m[38;5;196mbuffer underflow st=0 bufi=1516 size=11127
[0m[48;5;0m[38;5;213m[mpeg @ 0x41e74476c3f0] [0m[48;5;0m[38;5;196mbuffer underflow st=0 bufi=3557 size=11127
[0m[48;5;0m[38;5;213m[mpeg @ 0x41e74476c3f0] [0m[48;5;0m[38;5;196mbuffer underflow st=0 bufi=5598 size=11127
[0m[48;5;0m[38;5;213m[mpeg @ 0x41e74476c3f0] [0m[48;5;0m[38;5;196mbuffer underflow st=0 bufi=7639 size=11127
[0m[48;5;0m[38;5;213m[mpeg @ 0x41e74476c3f0] [0m[48;5;0m[38;5;196mbuffer underflow st=0 bufi=9680 size=11127
[0mpts:835200 pts_time:9.28 dts:831600 dts_time:9.24 duration:0 duration_time:0 stream_index:0
[48;5;0m[38;5;213m[mpeg @ 0x41e74476c3f0] [0m[48;5;0m[38;5;196mbuffer underflow st=0 bufi=585 size=2351
[0mpts:838800 pts_time:9.32 dts:835200 dts_time:9.28 duration:0 duration_time:0 stream_index:0
[48;5;0m[38;5;213m[mpeg @ 0x41e74476c3f0] [0m[48;5;0m[38;5;196mbuffer underflow st=0 bufi=266 size=2136
[0mpts:842400 pts_time:9.36 dts:838800 dts_time:9.32 duration:0 duration_time:0 stream_index:0
[48;5;0m[38;5;213m[mpeg @ 0x41e74476c3f0] [0m[48;5;0m[38;5;196mbuffer underflow st=0 bufi=162 size=3574
[0m[48;5;0m[38;5;213m[mpeg @ 0x41e74476c3f0] [0m[48;5;0m[38;5;196mbuffer underflow st=0 bufi=2203 size=3574
[0mpts:846000 pts_time:9.4 dts:842400 dts_time:9.36 duration:0 duration_time:0 stream_index:0
[48;5;0m[38;5;213m[mpeg @ 0x41e74476c3f0] [0m[48;5;0m[38;5;196mbuffer underflow st=0 bufi=661 size=2333
[0mpts:849600 pts_time:9.44 dts:846000 dts_time:9.4 duration:0 duration_time:0 stream_index:0
[48;5;0m[38;5;213m[mpeg @ 0x41e74476c3f0] [0m[48;5;0m[38;5;196mbuffer underflow st=0 bufi=360 size=2054
[0mpts:853200 pts_time:9.48 dts:849600 dts_time:9.44 duration:0 duration_time:0 stream_index:0
[48;5;0m[38;5;213m[mpeg @ 0x41e74476c3f0] [0m[48;5;0m[38;5;196mbuffer underflow st=0 bufi=338 size=3666
[0m[48;5;0m[38;5;213m[mpeg @ 0x41e74476c3f0] [0m[48;5;0m[38;5;196mbuffer underflow st=0 bufi=2379 size=3666
[0mpts:856800 pts_time:9.52 dts:853200 dts_time:9.48 duration:0 duration_time:0 stream_index:0
[48;5;0m[38;5;213m[mpeg @ 0x41e74476c3f0] [0m[48;5;0m[38;5;196mbuffer underflow st=0 bufi=745 size=2406
[0mpts:860400 pts_time:9.56 dts:856800 dts_time:9.52 duration:0 duration_time:0 stream_index:0
[48;5;0m[38;5;213m[mpeg @ 0x41e74476c3f0] [0m[48;5;0m[38;5;196mbuffer underflow st=0 bufi=371 size=3169
[0m[48;5;0m[38;5;213m[mpeg @ 0x41e74476c3f0] [0m[48;5;0m[38;5;196mbuffer underflow st=0 bufi=2412 size=3169
[0mpts:864000 pts_time:9.6 dts:860400 dts_time:9.56 duration:0 duration_time:0 stream_index:0
[48;5;0m[38;5;213m[mpeg @ 0x41e74476c3f0] [0m[48;5;0m[38;5;196mbuffer underflow st=0 bufi=1275 size=1883
[0mpts:867600 pts_time:9.64 dts:864000 dts_time:9.6 duration:0 duration_time:0 stream_index:0
[48;5;0m[38;5;213m[mpeg @ 0x41e74476c3f0] [0m[48;5;0m[38;5;196mbuffer underflow st=0 bufi=1424 size=2452
[0mpts:871200 pts_time:9.68 dts:867600 dts_time:9.64 duration:0 duration_time:0 stream_index:0
[48;5;0m[38;5;213m[mpeg @ 0x41e74476c3f0] [0m[48;5;0m[38;5;196mbuffer underflow st=0 bufi=1004 size=2817
[0mpts:874800 pts_time:9.72 dts:871200 dts_time:9.68 duration:0 duration_time:0 stream_index:0
[48;5;0m[38;5;213m[mpeg @ 0x41e74476c3f0] [0m[48;5;0m[38;5;196mbuffer underflow st=0 bufi=219 size=9892
[0m[48;5;0m[38;5;213m[mpeg @ 0x41e74476c3f0] [0m[48;5;0m[38;5;196mbuffer underflow st=0 bufi=2248 size=9892
[0m[48;5;0m[38;5;213m[mpeg @ 0x41e74476c3f0] [0m[48;5;0m[38;5;196mbuffer underflow st=0 bufi=4289 size=9892
[0m[48;5;0m[38;5;213m[mpeg @ 0x41e74476c3f0] [0m[48;5;0m[38;5;196mbuffer underflow st=0 bufi=6330 size=9892
[0m[48;5;0m[38;5;213m[mpeg @ 0x41e74476c3f0] [0m[48;5;0m[38;5;196mbuffer underflow st=0 bufi=8371 size=9892
[0mpts:878400 pts_time:9.76 dts:874800 dts_time:9.72 duration:0 duration_time:0 stream_index:0
[48;5;0m[38;5;213m[mpeg @ 0x41e74476c3f0] [0m[48;5;0m[38;5;196mbuffer underflow st=0 bufi=511 size=1620
[0mpts:882000 pts_time:9.8 dts:878400 dts_time:9.76 duration:0 duration_time:0 stream_index:0
[48;5;0m[38;5;213m[mpeg @ 0x41e74476c3f0] [0m[48;5;0m[38;5;196mbuffer underflow st=0 bufi=923 size=2279
[0mpts:885600 pts_time:9.84 dts:882000 dts_time:9.8 duration:0 duration_time:0 stream_index:0
[48;5;0m[38;5;213m[mpeg @ 0x41e74476c3f0] [0m[48;5;0m[38;5;196mbuffer underflow st=0 bufi=676 size=2643
[0mpts:889200 pts_time:9.88 dts:885600 dts_time:9.84 duration:0 duration_time:0 stream_index:0
[48;5;0m[38;5;213m[mpeg @ 0x41e74476c3f0] [0m[48;5;0m[38;5;196mbuffer underflow st=0 bufi=65 size=2084
[0mpts:892800 pts_time:9.92 dts:889200 dts_time:9.88 duration:0 duration_time:0 stream_index:0
[48;5;0m[38;5;213m[mpeg @ 0x41e74476c3f0] [0m[48;5;0m[38;5;196mbuffer underflow st=0 bufi=13 size=1900
[0mpts:896400 pts_time:9.96 dts:892800 dts_time:9.92 duration:0 duration_time:0 stream_index:0
[48;5;0m[38;5;213m[mpeg @ 0x41e74476c3f0] [0m[48;5;0m[38;5;196mbuffer underflow st=0 bufi=145 size=2149
[0mpts:900000 pts_time:10 dts:896400 dts_time:9.96 duration:0 duration_time:0 stream_index:0
[48;5;0m[38;5;213m[mpeg @ 0x41e74476c3f0] [0m[48;5;0m[38;5;196mbuffer underflow st=0 bufi=28 size=2124
[0m[48;5;0m[38;5;213m[mpeg @ 0x41e74476c3f0] [0m[48;5;0m[38;5;196mbuffer underflow st=0 bufi=2069 size=2124
[0m